<?xml version="1.0" encoding="UTF-8"?>
<svg version="1.1" viewBox="0 0 2000 2000" width="500" height="500" xmlns="http://www.w3.org/2000/svg">
<path transform="translate(953,277)" d="m0 0h2l11 19 17 33 14 29 16 38 10 27 5 17 5 23v3l8-7 8-10 14-15 7-8 12-13 23-23 14-11 15-12 20-15 13-8 6-3h3l-2 5-10 12-17 26-11 21-13 28-15 34-17 49-9 22-2 8 10-5 17-12 10-7 22-13 25-14 22-12 22-13 10-6 2 2-8 8-11 9-10 8-13 11-10 9-8 8-11 14-12 18-9 16-14 29-11 28-16 49-9 30-6 26-5 31-1 12v41l3 20 6 22 8 19 8 15 12 16 12 14 15 15 11 9 14 11 17 12 16 10 19 13 16 11 17 12 21 16 11 9 10 9 8 7 18 18 9 11 12 15 12 17 13 22 11 21 10 25 7 23 5 22 4 29 1 15v19l-3 27-5 25-9 27-9 20-9 16-10 15-10 13-11 13-12 13-10 9-12 10-15 11-18 12-21 12-27 13-24 9-37 10-39 8-10 4-4 4 2 10 1 4-13-1v3l6 2 13 7 10 9 6 5 10 13 10 17 8 14-1 2-8-9-9-14-8-11-11-12-12-9-8-4h-6l-2 1-1 4h2v2l4 2 13 13 10 13 8 13 5 12v2l-4-2-10-19-11-12-7-8-9-6-7-2-10 1 1 2 10 5 8 8 4 6 4 11 3 13 7 11 6 9-1 2-9-11-7-7-4-8-3-13-4-6-5-5-6-4-3-1h-8v3l13 11 5 10v18l-3-1-3-16-4-6-9-7-6-3h-3l2 5 8 10 3 7 1 5v22l-3-1-1-2-2-16-4-10-8-9-8-6-4-1 3 7 9 14 3 10v9l-2 5-3 1-3-18-6-12-4-4-6-1 1 8 8 16 1 8-2 9-8 16-3 8-3-1 1-9 6-13 1-4v-10l-4-10-5-12-4-15v-10l-8 3-6 9-6 18-12 19-3 5-1 7 3 9-1 4-5-4-3-7v-12l11-18 3-8 2-18-6 2-7 6-8 14-4 14-4 21v16h-2l-2-11v-18l2-16 5-12 7-12 1-3-5 1-15 14-6 12-2 8-2-2v-14l7-12 7-11-9 3-10 7-7 8-4 9-2 5-2-1 1-10 4-10 6-8 7-6 9-4h3l-1-2-3-1h-9l-11 4-6 5-9 16-7 9-10 12-4 8-2 1 1-5 6-12 10-14 6-12 5-9 9-9 6-3h2l-4-4-10 1-11 7-7 11-5 12-2-1 1-9 4-9 8-11 11-9-1-3-5-2-9 1-9 6-11 10-8 16-5 8-1-3 5-12 5-10-10 5-5 6-9 20-13 11-6 5 2-5 9-10 6-8 4-12 7-9 10-7 14-7 8-7 3-7 5-7 1-3v-8l-6-3-59-15-36-11-24-10-30-15-18-11-14-10-11-9-12-11-8-7-15-15-9-11-14-19-12-21-11-23-8-24-5-23-4-37v-26l4-33 6-26 7-20 8-18 8-16 9-15 10-14 10-13 9-10 12-13 10-9 11-11 11-9 14-12 32-24 18-13 38-28 16-13 10-8 13-12 24-24 9-11 10-14 10-17 10-22 6-18 5-25 1-10v-42l-4-26-7-31-19-77-11-44-12-43-15-56-11-42-10-36-7-21-11-26-8-10-9-7-20-9v-2l19 2 33 5 32 8 18 6 5 8 8 21 18 47 12 33 10 24 7 11h1l2-31 4-40 3-39v-28l-3-27-4-23-6-18zm-43 1293-8 7-2 5 15-5 4-2-6-5z" fill="#DAD7DD"/>
<path transform="translate(953,277)" d="m0 0h2l11 19 17 33 14 29 16 38 10 27 5 17 5 23v3l8-7 8-10 14-15 7-8 12-13 23-23 14-11 15-12 20-15 13-8 6-3h3l-2 5-10 12-17 26-11 21-13 28-15 34-17 49-9 22-2 8 10-5 17-12 10-7 22-13 25-14 22-12 22-13 10-6 2 2-8 8-11 9-10 8-13 11-10 9-8 8-11 14-12 18-9 16-14 29-11 28-16 49-9 30-6 26-5 31-1 12v41l3 20 6 22 8 19 8 15 12 16 12 14 15 15 11 9 14 11 17 12 16 10 19 13 16 11 17 12 21 16 11 9 10 9 8 7 18 18 9 11 12 15 12 17 13 22 11 21 10 25 7 23 5 22 4 29 1 15v19l-3 27-5 25-9 27-9 20-9 16-10 15-10 13-11 13-12 13-10 9-12 10-15 11-18 12-21 12-27 13-24 9-37 10-39 8-10 4-4 4 2 10 1 4-13-1v3l6 2 13 7 10 9 6 5 10 13 10 17 8 14-1 2-8-9-9-14-8-11-11-12-12-9-8-4h-6l-2 1-1 4h2v2l4 2 13 13 10 13 8 13 5 12v2l-4-2-10-19-11-12-7-8-9-6-7-2-10 1 1 2 10 5 8 8 4 6 4 11 3 13 7 11 6 9-1 2-9-11-7-7-4-8-3-13-4-6-5-5-6-4-3-1h-8v3l13 11 5 10v18l-3-1-3-16-4-6-9-7-6-3h-3l2 5 8 10 3 7 1 5v22l-3-1-1-2-2-16-4-10-8-9-8-6-4-1 3 7 9 14 3 10v9l-2 5-3 1-3-18-6-12-4-4-6-1 1 8 8 16 1 8-2 9-8 16-3 8-3-1 1-9 6-13 1-4v-10l-4-10-5-12-4-15v-10l-8 3-6 9-6 18-12 19-3 5-1 7 3 9-1 4-5-4-3-7v-12l11-18 3-8 2-18-6 2-7 6-8 14-4 14-4 21v16h-2l-2-11v-18l2-16 5-12 7-12 1-3-5 1-15 14-6 12-2 8-2-2v-14l7-12 7-11-9 3-10 7-7 8-4 9-2 5-2-1 1-10 4-10 6-8 7-6 9-4h3l-1-2-3-1h-9l-11 4-6 5-9 16-7 9-10 12-4 8-2 1 1-5 6-12 10-14 6-12 5-9 9-9 6-3h2l-4-4-10 1-11 7-7 11-5 12-2-1 1-9 4-9 8-11 11-9-1-3-5-2-9 1-9 6-11 10-8 16-5 8-1-3 5-12 5-10-10 5-5 6-9 20-13 11-6 5 2-5 9-10 6-8 4-12 7-9 10-7 14-7 8-7 3-7 5-7 1-3v-8l-6-3-59-15-36-11-24-10-30-15-18-11-14-10-11-9-12-11-8-7-15-15-9-11-14-19-12-21-11-23-8-24-5-23-4-37v-26l4-33 6-26 7-20 8-18 8-16 9-15 10-14 10-13 9-10 12-13 10-9 11-11 11-9 14-12 32-24 18-13 38-28 16-13 10-8 13-12 24-24 9-11 10-14 10-17 10-22 6-18 5-25 1-10v-42l-4-26-7-31-19-77-11-44-12-43-15-56-11-42-10-36-7-21-11-26-8-10-9-7-20-9v-2l19 2 33 5 32 8 18 6 5 8 8 21 18 47 12 33 10 24 7 11h1l2-31 4-40 3-39v-28l-3-27-4-23-6-18zm33 569-3 9-7 17-10 21-9 16-10 16-13 16-12 13-11 9-10 9-11 9-13 11-11 9-15 12-16 12-10 8-20 14-11 9-38 38-7 8-9 11-13 16-9 14-9 17-15 37-7 22-4 21-2 18v24l3 27 6 25 7 20 7 16 8 16 7 12 10 14 13 15 16 17 3 1v2l14 11 14 10 5 4 14 9 23 12 42 19 19 7 9 4-11-2-24-6-34-13-25-12-14-9-8-6-14-10-17-12-11-11h-2l-2-4-10-10-12-16-8-14-14-25-7-14-8-22-5-21-3-21v-47l4-26 6-21 9-24 12-26 8-16 5-8 11-14 18-22 8-8v-2l4-2 5-6 8-7 9-9 8-7 12-10 36-27 13-10 14-11 13-11 14-12 12-10 10-8 14-14 7-8 11-13 12-18v-3l-4 2-11 13-12 13-14 14-14 11-8 6-11 7-11 9-14 10-46 30-18 12-11 8-10 7-14 9-12 9-11 9-15 14-10 10-9 11-7 7-22 28-12 20-12 23-8 21-6 20-4 20-2 21v34l4 30 7 26 5 13 10 21 14 23 13 18 13 15 7 8 12 12 10 8 13 10 10 7 18 11 21 11 21 10 25 9 28 8 28 6 41 6 9 3 11 7 8 9 3 7 6-1 13-5 12-2h24l16 3 12 6 4-1 6-11 7-7 13-7 24-4 26-3 34-7 27-8 22-9 16-8 25-14 20-14 16-13 9-7v-2l4-2 12-12v-2l3-1 9-11 8-9 9-13 9-15 7-12 8-17 8-24 4-19 2-22v-36l-2-21-5-24-5-16-8-21-11-23-10-16-10-14-13-16-10-11-9-11-12-12-11-9-13-11-19-13-16-10-13-9-15-10-29-17-24-16-10-8-11-9-13-10-10-8-16-15-11-11-7-8-11-13-1 4 8 12 13 16 9 11 12 13 11 9 12 11 8 7 14 12 14 10 12 9 16 11 23 16 11 8 13 11 10 8 13 12 12 11 7 8 11 12 11 15 9 15 11 20 9 21 8 25 5 20 4 29v36l-3 24-6 25-7 21-8 16-8 15-12 19-6 10-9 10-7 8-6 7-11 9-13 10-16 12-19 13-12 7-20 9-27 9-18 5-18 3 50-20 12-5 16-8 14-8 12-8 13-10 15-10 10-9 15-15 9-11 12-16 8-16 13-25 8-22 6-25 3-20v-45l-4-26-6-21-7-20-8-19-10-19-6-11-9-11-11-13-12-14-12-12-11-9-8-7-22-18h-2v-2l-44-29-16-12-10-8-11-10-11-9-14-13-8-7-9-8-7-8-12-15-10-16-13-28-10-24-3-11-3-1-1 7v12l5 25 7 21 14 29 7 11 14 17 14 15 7 8 19 19 8 7 16 15 8 7 8 6 13 11 14 11 16 15 10 10 6 5 9 11 12 14 11 14 8 13 11 19 8 18 9 25 4 17 3 21v36l-3 22-6 26-8 22-8 15-12 19-10 14-9 11-9 10-7 9-14 13-2 1v2l-4 2-16 10-13 9-17 10-11 6-16 8-20 7h-3l19-9 15-9 16-11 12-8 10-7 13-9 10-8 13-12 13-13 13-19 7-9 13-20 8-16 6-15 6-21 4-27v-41l-3-21-4-15-9-24-13-26-9-14-12-17-9-11-14-15-20-20-8-7-14-12-11-9-3-1v-2l-8-7-10-9-8-6-13-12-12-11-24-24-11-14-10-14-8-13-10-18-9-24-3-10-3-1 1 26 4 25 4 17 8 22 12 25 10 18 9 12 9 10 9 11 16 17 24 26 9 9 9 11 15 15 9 11 11 14 12 18 12 21 9 20 6 21 2 16v45l-3 21-6 21-8 20-12 22-10 15-16 22-11 12-20 20-24 18-23 14h-1l13-10 11-9v-2l4-2 10-9 8-7 3-3v-2h2l6-8 11-13 11-14 10-14 8-13 10-18 9-21 7-25 3-19 1-21-2-20-4-20-6-19-11-21-12-19-14-19-22-26-7-8-29-29-7-8-9-10-7-8-12-14-13-16-13-20-11-19-7-17-8-25-4-17-3-4-2 7-5 21-8 24-11 26-13 25-11 18-21 28-24 28-24 24-9 12-20 25-11 15-12 18-8 15-5 13-5 21-2 18v18l3 22 5 21 6 17 10 21 10 18 8 12 14 19 8 10 7 9 13 13 9 7 11 10 19 14 1 2-16-10-23-16-14-10-5-5-14-15-11-13-13-19-10-17-12-23-6-15-6-23-3-21v-35l3-19 6-20 6-15 8-13 12-18 18-24 12-14 8-9 8-10 5-4 7-8 11-12 9-11 12-14 8-11 17-25 8-13 14-31 9-23 7-25 4-32 1-14v-13l-2-1-6 21-7 19-8 16-9 16-11 18-10 13-8 10-11 12-7 8-9 10-8 7-11 9-19 19-11 9-12 11-8 7-13 12-10 9-17 16-6 7-4 6-14 19-9 15-11 22-8 22-4 18-2 16v32l3 19 5 20 9 24 10 19 13 19 8 11 10 14 12 13 9 9 8 7 13 11 19 12 12 8 13 9 26 14 15 8-9-2-22-8-16-8-25-15-12-8-16-11-13-11-5-4-3-4h-2l-2-4-8-9-11-14-10-13-10-15-9-15-11-24-5-16-5-25-1-10v-33l4-26 5-19 9-21 8-16 10-17 13-18 14-15 11-12 13-13 8-7 13-12 11-9 13-12 11-9 9-9 8-7 7-7 3-2v-2l4-2 7-8 8-8 7-8 11-13 14-19 10-16 8-16 9-20 4-10 6-25 2-12v-21zm-76 724-8 7-2 5 15-5 4-2-6-5z" fill="#59334D"/>
<path transform="translate(990,890)" d="m0 0 2 1v13l-3 31-3 20-8 25-9 22-13 29-7 11-17 25-10 13-11 13-12 14-11 12-5 6-6 5-11 14-12 13-12 16-13 18-8 13-7 11-7 17-6 23-2 14v35l3 21 6 23 9 21 10 19 12 20 12 16 9 11 9 9 8 10 12 8 18 13 17 11 6 4v2l4 1 3 3 12 6 5 1-5-5-28-20-10-9-7-8-7-9-10-18-5-12-4-6-5-11-12-36-5-24-1-12v-24l3-24 5-22 6-18 5-5-2 10-2 12-3 13-2 20v17l2 19 5 23 5 20 9 21 10 19 11 16 8 10 9 10 13 12 22 18-8-10-8-8-7-8-10-14-18-32-10-25-8-24-5-28-1-10v-28l4-17 7-20 8-16 11-19 14-19 9-11 12-15 24-34 10-14 10-15 4-10h2l7 11 9 10 17 17 7 8 13 15 12 13 11 14 10 14 9 14 9 19 7 21 5 22 2 13 1 16-1 21-3 21-4 18-7 21-8 18-8 17-11 18-8 11-10 10-7 8-3 4 5-4h2v-2l8-7 13-10 11-12 14-19 11-19 10-21 8-29 4-20 2-18v-34l-3-21-6-25-5-17-9-17-12-18-10-13-11-12-9-10-28-28-14-19-14-21-11-21-5-12v-3h-2l-2 10-11 26-8 17-9 15-8 12-9 12-11 14-11 13-9 11-13 16-3-1 4-8 8-10 7-10 4-4 8-11 6-7 7-10 5-5h2l2-6 8-14 13-28 10-25 3-8 4-17 3-4 2 2 4 13 4 8 5 8 8 16 10 17 10 15 6 10 11 12 15 15 7 8 2 4h2l6 8 3 3v2h2l2 5 3 1 10 14 4 5 8 13 6 10 9 19 6 18 6 24 3 21v15l-1 16-5 28-6 21-7 20-10 23-8 16-10 16-7 9-7 7h-2l-4 8-5 5-13 10h-2l-2 4-11 7-3 4 16-5 9-4 7-3 20-12 7-1 1 5-9 8h-2v2l-13 8-11 6-8 5v1l18-1 15-3 4 2 1 5-7 5-14 5-3 2-1 3 21-1 13-1 7 1 1 2-1 2-19 3-3 1-17 1-14 5-9 7-8 8-4 6-5 2-18-6-12-2h-19l-13 2-13 5h-6l-5-6-7-8-11-7-9-3-29-4-26-5-9-3-2-4 2-2h3v2l5-2 21 2 30 4 4-1-8-4-9-4-6-3-4-3-8-3-6-4v-2l6-2 11 1 28 7h11l1-2-10-3-13-7-5-2-6-1-24-13-18-12-20-13-5-3-5-2-13-11-16-15-8-8-8-10-21-30-10-16-8-17-8-22-6-28-1-8v-32l3-21 5-19 8-20 11-22 9-14 13-17 7-10 11-11 8-7 7-7 8-7 13-12 10-9 11-9 13-12 13-13 14-11 10-10 7-8 9-10 9-11 10-13 10-15 18-32 8-20 5-15z" fill="#FCFCFD"/>
<path transform="translate(999,940)" d="m0 0 3 4 6 24 9 26 8 16 10 17 8 12 11 14 12 14 10 11 9 11 7 7 7 8 29 29 8 10 12 14 15 20 12 19 10 18 5 11 6 22 3 18 1 22-2 20-4 20-7 22-8 18-12 21-8 12-8 11-13 16-9 11-5 7h-2l-2 4-7 7-10 8-4 4h-2l-2 4-14 11-10 7 10-5 22-14 12-10 9-7 25-25 6-8 11-15 10-15 12-21 9-21 6-20 3-16 1-9v-45l-2-16-2-8 1-4 4 16 2 14 1 13v21l-4 29-7 25-9 21-14 24-7 11-6 8-10 13-11 13-21 21-11 8-12 9-11 6-9 6-19 9-3 1h5l-4 2-10 2 2-4 10-7 6-5 13-10 3-4h2l1-4 14-14 11-17 8-14 11-25 7-18 7-23 5-27 1-6 1-16v-15l-4-25-6-23-6-17-9-19-11-18-6-8-10-14-4-4v-2h-2l-1-4-3-1-5-6v-2h-2l-7-8-11-12-15-15-7-10-7-12-7-10-11-19-8-16-5-9-4-11-2-5-3 6-4 16-8 22-15 32-8 16-5 9-8 7-8 12-8 9-6 9-5 5-3 5-9 11-3 7 3-1 11-14 13-15 8-10 11-14 13-18 9-15 9-17 13-31 3-10h2l7 17 11 21 13 19 16 21 33 33 7 8 12 14 12 18 10 17 4 8 9 35 3 16 1 10v34l-3 24-6 25-6 20-12 25-11 17-12 16-13 14-11 8-6 6h-2v2l-7 5-2-1 10-10 7-8 8-9 12-19 8-16 9-19 8-22 4-17 3-17 1-9 1-22-2-22-5-24-6-19-6-15-9-17-13-18-11-14-12-14-12-13-7-8-11-12-16-16-8-12v-2h-2l-2 8-9 14-12 17-13 18-9 13-11 14-13 16-13 18-12 21-7 14-9 27-2 10v28l3 22 4 19 8 24 10 24 10 18 9 15 8 11 16 17 6 7v2l-4-2-14-12-15-13-10-10-13-17-10-16-11-21-6-15-8-32-3-17-1-13v-17l2-20 4-16 2-13v-4l-3 7-7 21-4 20-2 19v24l2 18 6 25 11 31 4 9 5 8 8 18 6 10 9 11 1 3 3 1 4 5 14 11 13 9 11 8 1 3-7-1-13-7v-2l-4-2h2l-5-5-12-9-13-11-16-14-10-10-8-11-14-18-10-15-9-16-11-21-6-15-6-23-3-17-1-10v-18l2-18 5-21 7-17 9-16 14-20 10-13 11-13 11-15 11-12 19-19 9-11 10-11 12-16 13-18 15-26 12-25 9-23 7-23 4-20z" fill="#DDDBE1"/>
<path transform="translate(1015,850)" d="m0 0 3 1 5 16 9 21 14 30 12 17 11 13 5 6 8 7 15 14 8 7 14 12 10 9 19 14 43 29 5 3v2l5 2 11 10 14 11 11 10 8 7 10 10 9 11 13 15 9 13 17 34 2 9 7 19 6 21 4 23 1 11v31l-3 24-4 20-9 27-10 19-8 16-7 12-4 6h-2l-2 4-9 11-3 4h-2l-2 4-12 12h-2v2l-11 8-10 7-16 12-12 8-11 6-16 8-25 10-28 11-20 7v1h8l23-4 7-1-3 2-3 1 9 2-1 3-15 5-1-4-12-1-8 1h-21l1-4 10-5 8-3 5-3-2-6-14 2-3 1-18 1v-3l13-8 13-7 4-3h2v-2l10-8-1-4-7 2-14 8-8 5-7 3-6 2-10 1 1-2 10-3 21-11 10-7 7-4 17-13 8-7 18-18 8-10 9-12 8-11 9-15 10-17 10-24 6-22 4-29v-21l-2-20-3-16-1-7h-2l-6-16-9-19-12-20-12-17-11-13-9-11-15-15-9-11-14-14-7-8-15-16-12-13-9-11-9-10-10-15-17-33-9-24-4-15-4-22-2-25v-9l3 1 9 27 8 16 9 16 11 16 13 16 7 8 26 26 8 7 12 11 11 8 10 10 2 1v2l4 2 13 11 11 9 17 16 20 20 7 8 13 17 10 15 9 16 11 23 9 25 4 21 1 9v41l-4 27-7 23-5 13-8 16-18 27-18 24-18 18-11 9-15 11-11 7-11 8-11 7-15 10-15 8-11 5 9-2 18-7 14-7 23-13 30-20 4-3h2v-2l8-7 10-9 8-10 9-10 10-13 11-17 12-20 8-19 6-21 4-20 2-16v-36l-4-26-6-21-8-21-9-19-9-15-10-15-9-11-12-14-8-10-8-7-17-17-11-9-14-12-11-9-12-9-11-11-8-7-16-15-16-16-7-8-11-12-8-10-7-10-14-27-6-15-6-21-3-17v-12z" fill="#DDDAE0"/>
<path transform="translate(953,277)" d="m0 0h2l11 19 17 33 14 29 16 38 10 27 5 17 6 29-5 18-7 30-8 36-7 45-3 22-3 26-3 11-10 24-11 26-3 9 2 21v37l-4 27-2 5-1-2 1-15-3-25-3-14-3-15-8-24-3-6-1-3h-2l-4-4-8-5-7-2-5-18-14-58-16-61-10-35-19-72-11-41-8-24-11-26-8-10-9-7-20-9v-2l19 2 33 5 32 8 18 6 5 8 8 21 18 47 12 33 10 24 7 11h1l2-31 4-40 3-39v-28l-3-27-4-23-6-18z" fill="#105C43"/>
<path transform="translate(990,890)" d="m0 0 2 1v13l-3 31-3 20-8 25-9 22-13 29-7 11-17 25-10 13-11 13-12 14-11 12-5 6-6 5-11 14-12 13-12 16-13 18-8 13-7 11-7 17-6 23-2 14v35l3 21 6 23 9 21 10 19 12 20 12 16 9 11 9 9 8 10 12 8 18 13 17 11 6 4-2 2v-2l-6-1-8-4-7-1-4-2-6-1v4l3 1 3 3 4 2 2 2 5 3v2l-6-1-24-13-18-12-20-13-5-3-5-2-13-11-16-15-8-8-8-10-21-30-10-16-8-17-8-22-6-28-1-8v-32l3-21 5-19 8-20 11-22 9-14 13-17 7-10 11-11 8-7 7-7 8-7 13-12 10-9 11-9 13-12 13-13 14-11 10-10 7-8 9-10 9-11 10-13 10-15 18-32 8-20 5-15z" fill="#DCD9DF"/>
<path transform="translate(1048,900)" d="m0 0 5 5 13 14 7 8 14 14 8 7 10 8 12 9 14 12 10 7 15 10 28 17 18 11 11 8 15 10 12 7 16 12 11 9 14 12 11 11 9 11 11 12 7 9 11 15 10 16 10 19 10 25 5 15 5 22 2 13 1 14v36l-2 22-5 23-9 25-10 19-10 17-9 13-8 10-10 11-2 3h-2l-2 4-12 12h-2l-1 3-25 20-21 14-23 13-16 8-25 10-24 7-23 5-25 4-26 3-12 3-11 6-8 8-6 11-5-1-10-5-16-3h-24l-16 3-11 5-5-1-4-9-7-7-14-8-25-4-26-4-26-6-25-7-27-10-29-14-20-11-12-8-19-14-9-8-8-7-12-12-9-11-11-14-10-15-9-15-10-19-6-15-6-21-3-14-3-24v-34l2-21 5-24 9-27 8-18 10-19 13-20 14-17 8-10 6-5-2 4-5 5-2 5-7 10-3 6h-2l-1 4-3 10-4 17-2 8-2 11-2 4-1 9h-2l-2 15-3 17v10l-2 13v31l1 5-1 6 1 15 2 15 3 15 1 8 6 18 2 12 3 7 10 35 7 11 7 12 4 6 10 10v3h3l6 7 3 1 1 2 4 2 4 5 7 3v2l5 3 5 5 17 10 34 17 21 8 29 9 4 1 14 1 11 3 25 4 21 3 11 4 10 7 7 8v2l3 1 1 2 9-1 13-5 10-1h19l15 3 15 5 5-2 7-10 4-1 2-4 8-6 14-5 17-1 17-3h7l14-5 1-2-10-1 1-2-7 1-17 3h-8l-2-2 15-6 9-3 42-16 20-9 13-8 9-5 11-8 12-9 12-8 6-5h2v-2l8-7 7-7 7-8 10-13 3-3 7-11 7-14 10-19 6-14 6-19 4-20 3-24v-31l-3-24-5-21-9-27-2-5 1-3 8 21 7 22 4 23 1 8v45l-3 20-6 25-8 22-14 27-7 14-10 13-7 9-12 13-14 14-15 10-12 9-13 9-13 8-19 9-8 4-55 22 18-3 25-7 22-8 11-5 16-8 23-16 28-21 14-12 9-10 9-11 6-9 12-20 8-14 8-16 7-19 6-25 3-19 1-9v-36l-4-29-6-24-8-24-8-18-12-22-10-16-11-14-11-12-12-13-8-7-13-12-9-7-11-9-12-9-22-15-20-14-16-12-13-10-13-12-11-9-12-11-8-7-12-14-13-16-7-10-4-6z" fill="#DDDAE0"/>
<path transform="translate(986,846)" d="m0 0h1v21l-5 26-5 16-11 25-8 16-10 16-16 21-12 14-12 13-4 5-5 5h-2l-1 3-8 7-7 7-8 7-12 11-8 7-14 12-15 13-8 8-8 7-15 15-7 8-11 12-13 19-9 15-8 16-9 21-6 23-3 22v33l3 21 5 21 6 16 10 21 7 11 8 12 9 12 10 13 11 13 3 3v2l4 2 5 5 10 9 14 10 15 10 20 12 11 7 18 8 23 8h3l-23-12-21-12-13-9-20-13-6-4 2-1 16 10 18 12 16 10 35 18 3 2v2h-8l-27-9-13-6-14-7-11-7-15-9-11-6v-2h-2l1 4-7-1-5-3v-2l-4-1-8-6-7-4-2-3-3-1-1-2-5-3-3-4-5-3-17-17-3-4v-2l-4-2v-2l-3-1v-3l-4-2-8-11-9-13-8-14-6-14v-2l-2-1-2-8-4-17v-2h-2v-8l-3-15-1-3-1-17-1-9v-33l1-20 4-32 1-7h-2l-2 4-1-2 10-23 10-18 11-14 18-22 14-15 32-32 15-11 14-10 10-8 12-9 13-10 14-12 14-11 10-9 10-8 11-10 8-7 7-8 12-15 10-16 14-26 11-25 3-11z" fill="#DCD9DF"/>
<path transform="translate(1173,341)" d="m0 0h3l-2 5-10 12-17 26-11 21-13 28-15 34-17 49-9 22-2 8 10-5 17-12 10-7 22-13 25-14 22-12 22-13 10-6 2 2-8 8-11 9-10 8-13 11-10 9-8 8-11 14-12 18-9 16-14 29-11 28-16 49-9 30-2 1h-9l-5 2-7 9-7 15-5 19-3 19-3 28-2 12-2-1-5-24-3-23v-23l4-19 6-23v-15l-9-32-5-5v-14l8-37 9-34 6-20 8-21 12-25 12-23 12-20 14-23 13-19 13-18 11-14 8-8 7-8 17-17z" fill="#087C44"/>
<path transform="translate(997,1045)" d="m0 0h2l7 17 11 21 13 19 16 21 33 33 7 8 12 14 12 18 10 17 4 8 9 35 3 16 1 10v34l-3 24-6 25-6 20-12 25-11 17-12 16-13 14-11 8-6 6h-2v2l-7 5-2-1 10-10 7-8 8-9 12-19 8-16 9-19 8-22 4-17 3-17 1-9 1-22-2-22-5-24-6-19-6-15-9-17-13-18-11-14-12-14-12-13-7-8-11-12-16-16-8-12v-2h-2l-2 8-9 14-12 17-13 18-9 13-11 14-13 16-13 18-12 21-7 14-9 27-2 10v28l3 22 4 19 8 24 10 24 10 18 9 15 8 11 16 17 6 7v2l-4-2-14-12-15-13-10-10-13-17-10-16-11-21-6-15-8-32-3-17-1-13v-17l2-20 8-31 5-13 10-18 11-15 10-13 9-11 12-14 8-10 11-14 13-18 9-15 9-17 13-31z" fill="#59324D"/>
<path transform="translate(1048,900)" d="m0 0 5 5 13 14 7 8 14 14 8 7 10 8 12 9 14 12 10 7 15 10 28 17 18 11 11 8 15 10 12 7 16 12 11 9 14 12 11 11 9 11 11 12 7 9 11 15 10 16 10 19 10 25 5 15 5 22 2 13 1 14v36l-2 22-5 23-9 25-10 19-10 17-9 13-8 10-10 11-2 3h-2l-2 4-12 12h-2l-1 3-25 20-21 14-23 13-16 8-25 10-24 7-23 5-25 4-26 3-12 3-11 6-8 8-6 11-5-1-10-5-16-3h-24l-16 3-11 5-5-1-4-9-7-7-14-8-25-4-26-4-26-6-25-7-27-10-29-14-20-11-12-8-19-14-9-8-8-7-12-12-9-11-11-14-10-15-9-15-10-19-6-15-6-21-3-14-3-24v-34l2-21 5-24 9-27 8-18 10-19 13-20 14-17 8-10 6-5-2 4-5 5-2 5-7 10-3 6h-2l-1 4-3 10-4 17-2 8-2 11-2 4-1 9h-2l-2 15-3 17v10l-2 13v31l1 5-1 6 1 15 2 15 3 15 1 8 6 18 2 12 3 7 10 35 7 11 7 12 4 6 10 10v3h3l6 7 3 1 1 2 4 2 4 5 7 3v2l5 3 5 5 17 10 34 17 21 8 29 9 4 1 14 1 11 3 25 4 21 3 11 4 10 7 7 8v2l3 1 1 2 9-1 13-5 10-1h19l15 3 15 5 5-2 7-10 4-1v-2l14-7 18-4 23-2 23-4 30-7 27-9 15-7 14-8 11-6 15-9 17-12 10-8 16-13 6-5 6-7h2l2-4 5-5 11-13 8-11 7-11 13-24 8-16 5-17 5-25 2-16v-33l-1-14-3-13-1-11-6-19-9-21v-2h-2l-2-9-2-1-4-10-6-9v-2h-2l-2-5-2-1-1-3-3-3-2-6-3-1-5-5-5-4-3-5-8-7-7-6-6-7-2-1v-2l-5-2-3-4-5-2 1 7h2l9 11 5 8v2h2l2 6h2l2 7-3-3-7-11-11-13-7-8-14-15-8-7-13-12-9-7-11-9-12-9-22-15-20-14-16-12-13-10-13-12-11-9-12-11-8-7-12-14-13-16-7-10-4-6z" fill="#CDC6D0"/>
<path transform="translate(1167,344)" d="m0 0 2 1-20 20-14 16-10 13-18 26-12 19-13 22-6 10-15 29-9 19-8 21-12 44-7 30-3 15v14l5 5 9 32v15l-8 31-2 11v23l4 29 7 31 2 5v3h-2l-8-17-6-15-9-22-3-6-4-5-7-3-7 1-4 5-12 36-9 22-2 1 1-8 5-21 3-22v-37l-2-22 7-17 16-39 3-8 3-20 3-26 5-32 3-20 8-36 4-17 7-28 1-6 8-7 8-10 14-15 7-8 12-13 23-23 14-11 15-12 20-15z" fill="#90BA6E"/>
<path transform="translate(999,940)" d="m0 0 3 4 6 24 9 26 8 16 10 17 8 12 11 14 12 14 10 11 9 11 7 7 7 8 29 29 8 10 8 9-1 2-7-6 6 8v2l4 2 2 2v4l2 1-1 3h-2v-2l-4-1-3-3h-2l-13-13-5-6-12-12-11-7-5-5-10-9-5-4-7-8-5-5-5-6-6-5-7-8-12-15-18-24-7-11-7-12-1-3-2-2 1-3-2-1-1-5-3-2-1 1v9l-4 29-2 8h-2l1 3-5 10-5 15h-2l-2 9-4 7-2 5h-2v4l-2 1-2 6-7 13-4 3-1 4-3 1-3 6-21 28-11 13-7 9-7 11-11 15-10 16-9 24-1 4h-2v6l-2 6-2 1 1 3-1 4h-2v9l-3 19-2 2-2 15v9l1 12 1 4-5-1-5-9-2-10-2-12v-26l1-17 4-19 3-9v-3l2-1 1-6h2l2-9 2-1 2-7h2l6-15 2-1 4-10 2-2 2-1 2-5 1-3 3-3 1-4h2l5-10 2-1 1-5 2-2 2-4 2-3h2l1-5 3-3 6-8 1-3 3-3 5-10 2-1 1-6h2l2-7v-3l-6 5 2-4 9-11 12-16 10-15 13-23 11-23 9-23 7-23 4-20z" fill="#B4ADB6"/>
<path transform="translate(1007,894)" d="m0 0 3 1 9 27 8 16 9 16 11 16 13 16 7 8 26 26 8 7 12 11 11 8 10 10 2 1v2l4 2 13 11 11 9 17 16 20 20 7 8 13 17 4 6-1 2-10-4-5 1-5 3-15 2-11 1-7-3-5-4-10-5h-3l2 5 3 2 1 3 3 3 2 5-5-5-12-14-7-8-12-12-9-11-14-14-7-8-15-16-12-13-9-11-9-10-10-15-17-33-9-24-4-15-4-22-2-25z" fill="#CDC6D0"/>
<path transform="translate(997,1103)" d="m0 0h2l7 11 9 10 17 17 7 8 13 15 12 13 11 14 10 14 9 14 9 19 7 21 5 22 2 13 1 16-1 21-3 21-4 18-7 21-8 18-8 17-2 1 3-11 6-18 6-28 2-12 1-18-1-19-4-29-7-25-10-25-9-17-8-12-10-13-7-9-4-10h-3v-2h-2l-9-12v-2l-3-1-1-4h-2l-8-10-2-2v-3l-3-1-2-3v-3h-2l-6-10-2-1-2 6-1 2h-2l-2 6-10 15-1 3h-2l-2 5-2 3h-2l-2 5-1 2h-2v3h-2l-1 5h-2v3l-3 3-7 10-2 5-3 1-1 4-1 2h-2l-2 8-4 4-3 7-7 14h-2l-3 12-8 24-5 23-2 19v36l3 23 8 35 1 7 5 9 3 5v3h2v3l4 2 4 8 10 8 7 8 5 6 3 6 6 3 5 4v2h2l-1 4-7-3-5-5-4-3-5-3-13-11-11-9-5-6-8-8 1-2 13 13 11 9 9 8 9 7-8-10-8-8-7-8-10-14-18-32-10-25-8-24-5-28-1-10v-28l4-17 7-20 8-16 11-19 14-19 9-11 12-15 24-34 10-14 10-15z" fill="#B4ADB6"/>
<path transform="translate(1015,850)" d="m0 0 3 1 5 16 9 21 14 30 12 17 11 13 5 6 8 7 15 14 8 7 14 12 10 9 19 14 43 29 5 3v2l5 2 11 10 14 11 11 10 8 7 10 10 9 11 13 15 9 13 17 34-1 3v-2l-3-1-8-16v-5l-4-2-3-3v-2l-11 5-13-1h-7l-5-1-1 5 3 9 7 14v6l-2-3-10-19-11-18-12-16-10-11-12-15-8-7-17-17-11-9-14-12-11-9-12-9-11-11-8-7-16-15-16-16-7-8-11-12-8-10-7-10-14-27-6-15-6-21-3-17v-12z" fill="#CDC6D0"/>
<path transform="translate(980,1065)" d="m0 0h2l-1 5-13 28-8 16-6 11-8 7-8 12-8 9-6 9-5 5-3 5-9 11-3 7v4l-11 15-7 11-8 16-5 16-2 3 1-9v-4l-3 7-7 21-4 20-2 19v24l2 18 6 25 11 31 4 9 5 8 8 18 6 10 9 11 1 3 3 1 4 5 14 11 13 9 11 8 1 3-7-1-13-7v-2l-4-2h2l-5-5-12-9-13-11-16-14-10-10-8-11-14-18-10-15-9-16-11-21-6-15-6-23-3-17-1-10v-18l2-18 5-21 7-17 9-16 14-20 10-13 11-13 11-15 11-12 19-19 9-11 11-10 2 1-4 10-10 19-3 1-1 4-8 11-2 4-3 3-2 5-6 9-6 10-9 14-7 13-8 15-9 18-2 6-2 7-4 13-2 11-1 26v18l2 11 2 10 5 9h3l-1-8-1-14 1-12 2-8h1l4-27 2-5 3-11 3-8 5-12 4-12 2-1 2-5 5-9 6-8 13-18v-2l5-5 9-11 8-10 9-12 10-14 3-5 2-1 2-4 4-4 6-11 2-6 2-4h2l2-7 4-8 2-6h2l2-7z" fill="#DBD8DE"/>
<path transform="translate(997,1184)" d="m0 0 4 1 14 20 10 13 8 12 8 13 15 28 10 19 6 15 6 21 4 22 1 7v25l-1 11-2 3-2 12-5 13-5 10-4 10-2 3h-2l-1 4-7 8h-2l2-6 3-4 7-18 5-18 2-13v-28l-3-17-8-22-12-21-8-12-9-10-5-5-5-6-8-7-12-11-4-1-7 8-9 10-11 14-7 8-8 15-9 20-7 19-4 25v12l2 18 4 17 6 15 7 14v2l-3-1-9-13-10-19-5-13-4-19v-40l5-26 10-30 8-18 16-32 9-17 11-16 11-15z" fill="#91BA71"/>
<path transform="translate(1218,464)" d="m0 0 2 2-8 8-11 9-10 8-13 11-10 9-8 8-11 14-12 18-9 16-14 29-11 28-16 49-9 30-2 1h-9l-5 2-7 9-7 15-5 19-3 19-3 28-2 12-2-1-5-24-2-14v-22l1-15 9-36 3-17 3-8 8-30 5-15 9-21 9-16 10-14 8-10 5-6h2l2-4 2-3h2v-2h2v-2h2v-2l6-4 4-2 1-3 8-6h2l1-4h3v-2l4-4 8-4v-2h3v-2l4-2 3-3 5-4h2l1-4h3v-2l9-6h2v-4l23-13z" fill="#115D44"/>
<path transform="translate(705,1175)" d="m0 0h2l-1 16-3 23-1 20v33l2 19v8h1l3 17-1 8h2l4 16 3 9 2 5 6 14 10 17 12 17 4 5 2 1 1 3 6 5 7 9 15 15 4 2 4 5 4 2v2l4 1 5 5 7 4 5 4 3 1v2l4 1 3 2 5 1-1-4h2v2l4 1 16 9 19 12 16 8 17 7 19 6 8 1v-2l-5-2-12-6 3-2 22 11 5 2-1 3h-11l-25-6-6-1-9-1-5 1 3 3 7 4 7 3 5 3 6 3 12 5 2 3-5 1-17-2v-1l12-1h-2l-13-1-20-4-11-3-24-8-25-11-22-11-10-7-7-6 2-1 14 10 16 9 19 9 27 10 9 3 28 7h3l-9-4-19-7-42-19-20-10-14-9-8-6-11-8-13-10-4-3v-2l-4-2-8-8-7-8-9-10-10-13-10-16-8-17-7-15-7-18-6-24-3-20-1-12v-24l3-25 5-21 8-23 4-10z" fill="#DBD8DE"/>
<path transform="translate(792,1058)" d="m0 0v3l-24 24-9 11-6 7-3 7-3 6-2 9-2 14-3 16-1 14-2 5-2 13 1 15 1 1 3-6 1 3-5 12-6 23-3 22v33l3 21 5 21 6 16 10 21 7 11 8 12 9 12 10 13 11 13 3 3v2l4 2 5 5 10 9 14 10 15 10 20 12 11 7 18 8 23 8h3l-23-12-21-12-13-9-20-13-6-4 2-1 16 10 18 12 16 10 35 18 3 2v2h-8l-27-9-13-6-14-7-11-7-15-9-11-6v-2h-2l1 4-7-1-5-3v-2l-4-1-8-6-7-4-2-3-3-1-1-2-5-3-3-4-5-3-17-17-3-4v-2l-4-2v-2l-3-1v-3l-4-2-8-11-9-13-8-14-6-14v-2l-2-1-2-8-4-17v-2h-2v-8l-3-15-1-3-1-17-1-9v-33l1-20 4-32 1-7h-2l-2 4-1-2 10-23 10-18 11-14 18-22 14-15z" fill="#B4ADB6"/>
<path transform="translate(797,328)" d="m0 0 19 2 33 5 32 8 18 6 5 8 8 21 18 47 12 33 10 24 7 11h2v2h-2l1 21 4 49 2 15 2 24-1 5-4-2-3-9-4-16-2-10-5-18-7-20-7-22-9-28-9-24-6-15-7-15-10-22-9-17-7-14-11 3-10-1-11-4h-4l-8-19-8-10-9-7-20-9z" fill="#087C44"/>
<path transform="translate(1048,900)" d="m0 0 5 5 13 14 7 8 14 14 8 7 10 8 12 9 14 12 10 7 15 10 28 17 18 11 11 8 15 10 12 7 16 12 11 9 14 12 11 11 9 11 11 12 7 9 11 15 10 16 10 19 10 25 5 15 5 22 2 13 1 14v36l-2 22-5 23-9 25-10 19-10 17-9 13-8 10-10 11-2 3h-2l-2 4-12 12h-2l-1 3-25 20-21 14-23 13-16 8-25 10-24 7-23 5-25 4-26 3-12 3-11 6-8 8-6 11-5-1-7-4 3-1 5 2 3-1 9-13 4-1v-2l14-7 18-4 23-2 23-4 30-7 27-9 15-7 14-8 11-6 15-9 17-12 10-8 16-13 6-5 6-7h2l2-4 5-5 11-13 8-11 7-11 13-24 8-16 5-17 5-25 2-16v-33l-1-14-3-13-1-11-6-19-9-21v-2h-2l-2-9-2-1-4-10-6-9v-2h-2l-2-5-2-1-1-3-3-3-2-6-3-1-5-5-5-4-3-5-8-7-7-6-6-7-2-1v-2l-5-2-3-4-5-2 1 7h2l9 11 5 8v2h2l2 6h2l2 7-3-3-7-11-11-13-7-8-14-15-8-7-13-12-9-7-11-9-12-9-22-15-20-14-16-12-13-10-13-12-11-9-12-11-8-7-12-14-13-16-7-10-4-6z" fill="#B4ADB6"/>
<path transform="translate(1016,1051)" d="m0 0h2l4 6 5 8 6 11 6 9 1 3h2l7 8 12 9 5 6 10 7 5 6 12 8 5 4 5 5 8 6-1 5h6l2 4 1 5 2 3 18 9 1-2 5 4 5 7 8 6v2l5 2 2 3 4 1 4 3 2 1-4 2-1 4 4 4 8 17 2 3 4-5 1 4h2l2 18 1 28 1 7-1 24-3 6-3 13-3 9h-4l-1-4 3-16v-12h1l2 7 1-21-2-15-2-6-1-5-4 5-3 1-9-1-2 8-7-1-1-7-1-11-2-8v-8l2-3-5 1-1-3h-2l-1-2v-8l5-5-1-6-4 1-1-1v-7l1-5-4-1h-2v-2l-6-3-5-5-6-5-6-10-4-4-4-5-3-6-5-5-5-4-5-6-9-7-6-7-7-6-5-5-7-5-3-5-7-9v-2l-4-2-1-4-3-1-9-14-3-6-6-10-2-5z" fill="#E4E5E8"/>
<path transform="translate(953,277)" d="m0 0h2l11 19 17 33 14 29 16 38 10 27 5 17 6 29-5 18-7 30-8 36-5 33h-1v-12l1-12v-9l1-8-2-12v-30l-1-22-4-33-4-25-5-23-10-41-6-18-5-13h2l-5-11-4-9v-2h-2l-1 4-5-17z" fill="#0A7D44"/>
<path transform="translate(1015,850)" d="m0 0 3 1 5 16 9 21 14 30 12 17 11 13 5 6 8 7 15 14 8 7 14 12 10 9 19 14 43 29 5 3v2l5 2 11 10 14 11 11 10 8 7 10 10 9 11 13 15-1 2-6-7-5-5-9-10-7-8-7-7-8-7-7-6v-2l-4-2-5-3v-2l-5-2-5-4-5-5-8-7-5-2v-2l-4-2-6-4-5-3-4-1-4-4-5-3v-2l-4-2-11-8-12-8v-2l-4-1-7-7-7-2-2-4-1 4h-2v2h-5l-2 2v-2h-2v-2h-6l-1-4-5-2-1 1 3 3v3l4 1v3l4 1 3 5 2 4 4 2v2l4 2 5 6 6 4 5 7 10 6 6 5v2l3 1 5 5 8 6 7 5 6 7 8 7 7 6 7 8 12 12 5 7 3 3 5 6v2h2l6 8 9 14-1 2-10-14-8-10-12-14-8-10-8-7-17-17-11-9-14-12-11-9-12-9-11-11-8-7-16-15-16-16-7-8-11-12-8-10-7-10-14-27-6-15-6-21-3-17v-12z" fill="#B4ADB6"/>
<path transform="translate(688,1113)" d="m0 0v3l-10 14-3 4-1 4h-2l-3 9-3 6v3h-2l-1 6-4 9-3 7-1 9-4 13-1 7-1 1v10l-1 4-1 7-2 13-1 21v25l1 10 1 22 2 13 2 10 4 14 3 9-1 4 3 1 1 8 4 10 3 8 2 4 6 9 5 8 6 8 5 7v2h2l5 6v2l3 1 5 6 8 7 5 6-4-2-10-9-11-11-9-11-11-14-10-15-9-15-10-19-6-15-6-21-3-14-3-24v-34l2-21 5-24 9-27 8-18 10-19 13-20z" fill="#B4ADB6"/>
<path transform="translate(995,997)" d="m0 0 5 5 1 7 5 8 9 16 10 13 15 20 11 13 7 8 7 6 2 4 8 7 2 4 4 2 8 7v2l4 2v2l4 2 12 8 8 8 5 6 5 5 12 11 4 2v2l4 1 1 1v-3l-2-5-5-5-5-6v-2l4 2 8 7 15 20 12 19 10 18 5 11-1 4-1-3-2 2-2 4-11-22v-2l-4-2 2-5 1-1-5-4-4-2-5-4v-2l-4-2-5-4-4-5v-2l-4-2-1 1-5-2-8-4-7-4-3-4v-6l-7-2v-5l-9-7-3-3-20-15-4-5-9-6-6-7-11-8-6-6v-2h-2l-6-9-7-11-4-8-5-6v-3 4l3 4 1 6-3-3-5-10 1-4-5 1-2-6-1-2-2 1v-2h-2l-4-11-2-5-3 6-4 16-7 19-4 1 1-7 5-8 3-12 2-10 3-23v-7z" fill="#DEDBE1"/>
<path transform="translate(1047,1189)" d="m0 0h2l9 12 10 12 10 10 4 7 7 12-1-9-9-19-3-7v-6l3-1 8 10 3 5 4 4 9 19 7 21 5 22 2 13 1 16-1 21-3 21-4 18-7 21-8 18-8 17-2 1 3-11 6-18 6-28 2-12 1-18-1-19-4-29-7-25-10-25-9-17-8-12-10-13-7-9z" fill="#CDC7D0"/>
<path transform="translate(1269,1093)" d="m0 0 6 2 5 5 2 1v2l4 2v2l4 2v2l4 2 14 14v2l4 2 6 5 4 5 2 6 3 1v3l3 1 1 5h2l6 10 5 10 3 7v4h2l10 23 4 12 2 7 1 11 3 13 1 14v33l-4 27-5 22-6 16-12 22-9 16-8 11-9 12-7 8h-2l-2 4-8 9h-2l-1 3-8 7-16 13-16 12-17 11-15 9-28 14-16 6-15 5-11 2 2-2 13-4 6-2h4v-2l4-2 8-1 1-2 7-1v-2l6-2h2v-2l12-7h3l1-3h3l1-3 8-3 11-7 10-7 13-9 3-3 8-7 5-2v-2l5-2v-2l8-7 4-5h2v-2h2l2-4 4-2 2-4 3-4h2l2-5 8-11 1-2h2l2-5 11-20 6-11 5-12 5-16 3-16 2-21 1-6v-29l-1-4-2-13-4-20-5-15-2-7h-2l-4-11-1-4h-2l-2-5-8-13-6-7-1-4-4-2-4-4v-2h-5l1 11 2 2v6l-2-3-8-16-11-21-3-7v-3h-2l-2-6h-2l-6-10-8-9v-2h-2z" fill="#CDC6D0"/>
<path transform="translate(1007,894)" d="m0 0 3 1 9 27 8 16 9 16 11 16 13 16 7 8 26 26 8 7 12 11 11 8 10 10 2 1v2l4 2 13 11 11 9 17 16 20 20 7 8 11 14-1 2-6-7-8-10-14-15-8-8-3-2v-2l-4-2-8-7-5-5-7-6-11-9-5-4-3-3-2-1v-2l-5-2-1-3-4-2-1-4-6-2-2-4-4-2-10-9-9-7-4-4v-2l-4-2-13-13v-2l-4-2-3-3v-2l-4-2v-2h-4l3 9 6 12v7l-1 4-7-2-7-5v-2l-3-1-2-4-4-2-3-5-4-3-2 4-9-19-9-27-5-27-2-25z" fill="#B4ADB6"/>
<path transform="translate(990,890)" d="m0 0 2 1v13l-3 31-3 20-8 25-9 22-13 29-5 8-1-2 2-5h2v-5l-3 3-1-4 3-5 3-17 4-13 1-9v-10l-1-6-2 1 2-5 10-18 8-16 9-26z" fill="#B4ADB6"/>
<path transform="translate(1303,1177)" d="m0 0 2 2 9 25 6 21 4 26v45l-3 20-6 25-8 22-14 27-7 14-10 13-7 9-12 13-14 14-15 10-12 9-13 9-13 8-19 9-8 4-55 22 18-3 25-7 22-8 11-5 16-8 23-16 28-21 14-12 9-10 9-11 6-9 12-20 8-14 8-16 7-19 6-25 3-19 1-9v-36l-4-29-5-20 1-4 6 22 4 26v46l-5 32-5 18-4 12-4 9-8 16-10 18-8 13-7 11-11 12-7 8-8 8-32 24-24 16-12 7-21 9-33 11-17 4-17 3h-8l-2-2 15-6 9-3 42-16 20-9 13-8 9-5 11-8 12-9 12-8 6-5h2v-2l8-7 7-7 7-8 10-13 3-3 7-11 7-14 10-19 6-14 6-19 4-20 3-24v-31l-3-24-5-21-9-27-2-5z" fill="#B4ADB6"/>
<path transform="translate(927,1093)" d="m0 0 2 1-4 10-10 19-3 1-1 4-8 11-2 4-3 3-1 3-7 1v5l-7 4-5 5-3 1-1 4-7 6-9 14-3 5-7 6-8 10-6 3v-5l1-1 2-10 12-16 10-13 11-13 7-10 11-12 19-19 9-11z" fill="#E3E3E7"/>
<path transform="translate(1243,1181)" d="m0 0 3 4 9 21 6 19 3 17 1 9v41l-4 27-7 23-5 13-8 16-18 27-18 24-18 18-11 9-15 11-11 7-11 8-11 7-15 10-15 8-11 5 9-2 18-7 14-7 23-13 30-20 4-3h2v-2l8-7 10-9 8-10 9-10 10-13 11-17 12-20 8-19 6-21 4-20 2-16v-36l-4-26-6-21 1-3 6 18 3 13 3 31v13l-2 23-3 17-6 24-8 21-5 9-15 24-10 14-11 13-11 14-8 8-8 7-13 9-24 16-13 8-18 10-13 6-20 7-15 3-1-2 28-14 17-10 13-9 27-18 11-7 12-11 8-7 13-13 10-13 8-11 10-15 9-14 7-14 5-13 5-16 4-21 2-19v-21l-1-17-4-22-5-16-8-20-2-3z" fill="#B4ADB6"/>
<path transform="translate(1091,1216)" d="m0 0 3 3 9 19 7 21 5 22 2 13 1 16-1 21-3 21-4 18-7 21-8 18-3 4 1-5 8-22 2-5 1-4-1-3 3-1-1-3-1-1 1-15v-23l-3-31-2-15-3-8 3-9 4 5 4 8h2v-12l-6-21-8-20-5-10z" fill="#B4ADB6"/>
<path transform="translate(779,1073)" d="m0 0v3l-8 8-5 8-2 15-3 9-4 18-1 3-2 12-2 2-1 12-3 9v7l1 3-7 15h-2l-2 6-2 1-1-2-1-17 2-12 2-4 1-14 2-11 3-16 1-8 3-8 3-5 2-5 13-15 7-8z" fill="#CCC5CF"/>
<path transform="translate(927,1237)" d="m0 0h2l-2 6h-2l-3 12-8 24-5 23-2 19v36l3 23 8 35-1 3-4-4 1-5h-4l-1-4 1-9-4-16v6l-2 1v-2h-2l-1 2-8-23-3-14v-8l3-1v-9l3-1 1-15 5-9 2-6 3-16 4-13 2-1 3-12 5-10 2-5z" fill="#CCC5CF"/>
<path transform="translate(793,1238)" d="m0 0h1v8l-2 7-1 9h5l1 2-1 7-1 13-2 2-2-2 1 7 2 3 2-1v21l-1 6 1 3 4 1 1 6h2l6 20 1 10-4-3-2 1-4-8-5-7-2-12-9-11-4-2-2 7-3 5-1 9-2 2v-15l3-8 5-13 2-5 2-2v-5h-2l-2-13h2l-1-10 3 4 4-21 3-7z" fill="#E3E4E7"/>
<path transform="translate(980,1065)" d="m0 0h2l-1 5-13 28-8 16-6 11-8 7-8 12-8 9-6 9-5 5-3 5-9 11-3 7v4l-11 15-7 11-8 16-5 16-2 3 1-9v-4l-3 7-7 21-4 20-2 19v24l2 18 6 25 1 5-3-1-4-16-4-22-1-12v-21l3-23 2-14 2-5 3-11 3-8 5-12 4-12 2-1 2-5 5-9 6-8 13-18v-2l5-5 9-11 8-10 9-12 10-14 3-5 2-1 2-4 4-4 6-11 2-6 2-4h2l2-7 4-8 2-6h2l2-7z" fill="#E3E3E7"/>
<path transform="translate(1e3 1040)" d="m0 0 4 1 2 5 1 1 4 1 1 6 11 22 6 11 1 4 3 1v3h2v3h2l4 6 8 9v2l4 2v2h2v2h2l4 4v2h2v2h2v2h2l2 5 4 2 4 4v2l4 2 7 8 6 5v2h2l2 5h2l10 15v2h2l1 5h2l7 11 8 15 6 22-1 4-4-9-10-21-11-18-6-8-10-14-4-4v-2h-2l-1-4-3-1-5-6v-2h-2l-7-8-11-12-15-15-7-10-7-12-7-10-11-19-8-16-4-6z" fill="#E4E4E8"/>
<path transform="translate(1203,1231)" d="m0 0 2 3 3 13 2 14 1 13v21l-4 29-7 25-9 21-14 24-7 11-6 8-10 13-11 13-21 21-11 8-12 9-11 6-9 6-19 9-3-1 17-12 13-10 7-8 10-9 5-3h2v-2l8-7 12-14 9-11 10-12 3-5h2l2-5 9-14 10-17 3-9 3-6h2v-6l1-2h2l1-5 1 4-9 21-12 22-7 10-9 13-14 17-9 11-5 7h-2l-2 4-7 7-10 8-4 4h-2l-2 4-14 11-10 7 10-5 22-14 12-10 9-7 25-25 6-8 11-15 10-15 12-21 9-21 6-20 3-16 1-9v-45l-2-16-2-8z" fill="#B4ADB6"/>
<path transform="translate(986,846)" d="m0 0h1v21l-5 26-5 16-11 25-4 7-1-2 7-17 1-5-10-4-6 7-6 8-2 4h-2l-2 5-10 10-7 8-8 7-6 5-2-1 12-11 8-7 7-8 12-15 10-16 14-26 11-25 3-11z" fill="#B4ADB6"/>
<path transform="translate(1e3 1010)" d="m0 0 3 1 6 12 9 14 10 13 13 17 9 11 8 9 7 6 2 4 8 7 2 4 4 2 8 7v2l4 2v2l4 2 12 8 8 8 5 6 5 5 12 11 4 2v2l4 1 1 1v-3l-2-5-5-5-5-6v-2l4 2 8 7 15 20 9 14-1 2-10-5-8-8-12-9-5-5-7-6-7-8-11-11-3-2v-2l-4-2-10-10-7-5-5-6-8-7-5-4-7-8-12-12-9-11-4-5v-2h-2l-6-9-4-5v-2l-3-1-12-17-6-11-4-8z" fill="#CBC4CD"/>
<path transform="translate(715,1347)" d="m0 0h2l7 16 10 17 12 17 4 5 2 1 1 3 6 5 7 9 15 15 4 2 4 5 4 2v2l4 1 5 5 7 4 5 4 3 1v2l4 1 3 2 5 1-1-4h2v2l4 1 16 9 19 12 16 8 2 2h-8l-6-3-8-2-16-8-9-5-7-3-20-12-5-4-7-4-10-8-12-11-3-1-7-8-1-3-4-1-6-8-3-3-2-5-4-2-3-4v-2h-2l-9-13-7-11-5-7-3-8-5-11z" fill="#CDC6D0"/>
<path transform="translate(846,1237)" d="m0 0h2l-2 9-3 10-2 11-1 26v18l2 11 2 10 5 9h3l-1-8-1-14 1-12 2-8h1v31l2 17 6 31-1 3-6-7-4-8-5-11-6-16-2-6-3-18v-35l3-17 5-17z" fill="#CAC3CD"/>
<path transform="translate(737,1477)" d="m0 0 5 2 15 10 29 15 16 8 21 8 29 9 4 1 14 1 11 3 25 4 21 3 11 4 10 7 7 8v2l3 1 1 2 9-1 13-5 10-1h19l15 3 15 5 4-1-2 4-5-1-16-4-8-1h-24l-16 3-11 5-5-1-4-9-7-7-14-8-25-4-26-4-26-6-25-7-27-10-29-14-20-11-12-8z" fill="#CCC7CE"/>
<path transform="translate(1363,1332)" d="m0 0h1l-1 10-5 17-8 16-15 28-18 24-7 8h-2l-2 4-8 9h-2l-1 3-8 7-16 13-16 12-17 11-15 9-28 14-16 6-15 5-11 2 2-2 13-4 6-2h4v-2l4-2 8-1 1-2 7-1v-2l6-2h2v-2l12-7h3l1-3h3l1-3 8-3 11-7 10-7 13-9 3-3 8-7 5-2v-2l5-2v-2l8-7 4-5h2v-2h2l2-4 4-2 2-4 3-4h2l2-5 8-11 1-2h2l2-5 11-20 6-11 5-12 5-16 1-7z" fill="#CEC7D1"/>
<path transform="translate(691,1241)" d="m0 0 3 2 1 3v8l1 3 1 15v1l1 25 2 13-1 8-2 2v-3l-5-2 1-6-1-5-4-1-1-5v-9l-1-1v-7l-1-11 1-23 4-6z" fill="#E4E5E8"/>
<path transform="translate(861,356)" d="m0 0h10l5 5 2 7-1 7-5 4-10 1-14-4-6-1-4-11 16-6z" fill="#90BA6E"/>
<path transform="translate(799,1017)" d="m0 0 2 1-4 2-2 4-6 5-5 5h-3l-1 3-4 6-4 2v2h-2l-1 3h-3l-1 4-10 8v2l-4 2-7 1-9 2-7 5-4 2-14 16-5 6-3-1 9-11 17-17 8-7 14-11 17-12 10-6 11-8z" fill="#CCC5CF"/>
<path transform="translate(1265,1203)" d="m0 0 2 2 6 20 3 17 2 23v13l-2 23-3 17-6 24-8 21-5 9-15 24-10 14-11 13-11 14-8 8-8 7-13 9-24 16-13 8-18 10-13 6-20 7h-5l1-2 24-8 16-8 22-12 33-22 4-3h2v-2l8-7 10-9 8-10 9-10 10-13 11-17 12-20 8-19 6-21 4-20 2-16v-36l-4-26-6-21z" fill="#B4ADB6"/>
<path transform="translate(1256,1222)" d="m0 0 2 3 2 22 1 1v35l-3 15-1 11-5 2-1-12 2-11v-8l-2-12-4-3v-2l3-2-1-5-3-3h-2v-2l-3-3 1-3 7 1 2 5h2l1-3 2 3-1-9 1-3z" fill="#E5E6E9"/>
<path transform="translate(1114,1400)" d="m0 0h1v6l-10 16h-2l-2 5-7 11-10 13-5 5-13 11-7 7-6 4h-2v2l-8 5-4 4h-5l1-4 7-9 7-6 5-5 8-9 4-4h2l3-6h2l1-5h2v-3h2v-3h2l2-6 3-2-2 6-14 21-11 11-7 8-3 4 5-4h2v-2l8-7 13-10 11-12 14-19 11-19z" fill="#CDC9D0"/>
<path transform="translate(1077,1232)" d="m0 0 3 3 9 19 8 24 4 17 3 23 1 1 1 12v23l-1 15h2l-1 6h-2l1 5-2 4-10 26-3 10-4 7-1-2 9-27 6-28 2-12 1-18-1-19-4-29-7-25-10-25-4-7z" fill="#E1E0E5"/>
<path transform="translate(881,1215)" d="m0 0h7l-8 16-6 17-2 7h-1l1-9v-4l-3 7-7 21-4 20-2 19v24l2 18 6 25 1 5-3-1-4-16-4-22-1-12v-21l3-23 2-14 2-5 3-11 3-8 5-12 4-12 2-1 2-5z" fill="#DFDDE2"/>
<path transform="translate(896,1014)" d="m0 0 2 1 2 3h-3l-3 10-13 13-5 2-8 8-5 2v2l-5 2v2l-4 2-2 4-4 1v-2h-3v-2l2-1 1-4 6-2-1-2 1-2h2l2-4 7-6 4-2 6-4 1-2h2l2-4h2l1-2 6-2v-3h2l1-5h2l1-2z" fill="#E1E1E5"/>
<path transform="translate(1173,341)" d="m0 0h3l-2 5-10 12-18 27h-2l-1 3h-11l2-7 22-24 15-15z" fill="#176345"/>
<path transform="translate(783,1475)" d="m0 0 5 2 11 8 16 9 19 9 27 10 9 3 28 7h3l-9-4-19-7-42-19-20-10-11-7 2-1 26 14 22 10 24 10 13 6 20 7 8 4v1l-13-1-20-4-11-3-24-8-25-11-22-11-10-7-7-6z" fill="#B4ADB6"/>
<path transform="translate(927,1237)" d="m0 0h2l-2 6h-2l-3 12-8 24-5 23-2 19v36l3 23 8 35-1 3-4-4 1-5h-4l-1-4 1-9-5-26-1-9v-39l3-23 5-21 3-17 4-9 4-8z" fill="#E1E1E5"/>
<path transform="translate(1188,1340)" d="m0 0 1 4-9 21-12 22-7 10-9 13-14 17-9 11-5 7h-2l-2 4-7 7-10 8-4 4h-2l-2 4-14 11-10 7v3l-11 5-3-1 17-12 13-10 7-8 10-9 5-3h2v-2l8-7 12-14 9-11 10-12 3-5h2l2-5 9-14 10-17 3-9 3-6h2v-6l1-2h2z" fill="#B4ADB6"/>
<path transform="translate(821,340)" d="m0 0 9 1 10 5 11 3 10 5-1 2-6 1v2l-13 5-4-1-5-10-9-10-2-1z" fill="#115E43"/>
<path transform="translate(794,1245)" d="m0 0 3 1 2 4h2l-1 10-1 9v35l3 21v5l-2-4-5-3-1-6 1-6v-10h-1l-2-9-2-7 2-2 2 1 1-13 1-8-5-1v-9z" fill="#D9D5DC"/>
<path transform="translate(960,965)" d="m0 0h1l1 7v10l-2 12-4 14-3 16-2 4 4-2-1 6h-2l-2 9-8 11h-1v-10l5-10 9-30 2-16v-7l1-4h-4l-2 4-8 11-5 5 2-5 8-10 8-13z" fill="#CAC3CD"/>
<path transform="translate(915,1417)" d="m0 0 3 1 4 10 5 8v3h2v3l4 2 4 8 10 8 7 8 5 6 3 6 6 3 5 4v2h2l-1 4-7-3-5-5-4-3-5-3-13-11-11-9-5-6-8-8 1-2 13 13 11 9 9 8 9 7-8-10-8-8-7-8-10-14-9-16z" fill="#CAC5CD"/>
<path transform="translate(1064,1344)" d="m0 0 2 3 3 12 1 8v28l-3 17-6 20-6 14-5 8 7-6 3-6 3-3 5-12 7-15 3-10 1-8 2 3-4 17-2 6h-2l-1 6-9 17-6 8-10 10-5 1 2-5 6-10 6-12 7-18 3-13 1-9v-31l-3-16z" fill="#E4E4E8"/>
<path transform="translate(958,912)" d="m0 0 6 2 6 3-1 6-7 16-4 11-10 16-4 4 2-5 10-16 3-7v-6l-7-6h-5v-3l7-9z" fill="#CAC3CD"/>
<path transform="translate(705,1175)" d="m0 0h2l-1 16-3 23-1 20v33l2 19v7l-2-1-3-24v-48l2-23-1-3-2 1-2 4-2 1 1-6 6-15z" fill="#CCC5CF"/>
<path transform="translate(996,1120)" d="m0 0 5 1v2h2l4 5 5 5 7 9 2 5 1 5 3 1 4 6v6l-3-1-1-4h-2l-8-10-2-2v-3l-3-1-2-3v-3h-2l-6-10-2-1-2 6-1 2h-2l-2-5 1-5z" fill="#D0CAD3"/>
<path transform="translate(1124,1222)" d="m0 0 2 1 8 30 3 16 2 16v31l-3 23-5 23-5 19-7 17-4 2 2-6 5-11 8-29 4-20 2-18v-34l-3-21-6-25-3-11z" fill="#C8C3CB"/>
<path transform="translate(1e3 1010)" d="m0 0 3 1 6 12 9 14 10 13 13 17 9 11 8 9 7 6 2 4 8 7 2 4 4 2 8 7v2l4 2v2h2l-1 2-7-5-5-6-8-7-5-4-7-8-12-12-9-11-4-5v-2h-2l-6-9-4-5v-2l-3-1-12-17-6-11-4-8z" fill="#CBC4CD"/>
<path transform="translate(1327,1341)" d="m0 0 2 2-5 16-5 11-4 8-9 16-6 11-6 10-4 8-9 12-5 5h-2l-1 3-6 5-5 6-6 5-17 12h-2v2l-11 7-2 2-3-1 14-10 26-20 11-11 9-11 6-7 11-19 10-17 8-16 4-9 4-10z" fill="#CEC7D1"/>
<path transform="translate(863,1423)" d="m0 0 5 4 10 13 7 8 8 8 7 4v2l4 2 12 11 4 3 5 2 17 12 11 8 1 3-7-1-13-7v-2l-4-2h2l-5-5-12-9-13-11-16-14-10-10-8-11-5-6z" fill="#DBD8DF"/>
<path transform="translate(1084,1092)" d="m0 0 4 2 13 12 27 27 4 5-1 4-5-3-34-34-6-7z" fill="#C9C2CC"/>
<path transform="translate(991,1558)" d="m0 0h19l15 3 15 5 4-1-2 4-5-1-16-4-8-1h-24l-16 3-2 1-11 1-1-2 9-2 13-5z" fill="#DBD8DE"/>
<path transform="translate(823,1264)" d="m0 0h1l-1 18 2 6-1 5h-1l-2-8v7l4 14 2 12 6 24-2-1-4-10-3-10-1-13-4-9-2-12-2 3-3-1 4-11-1-6 4-1 2 1 1-6z" fill="#E4E5E8"/>
<path transform="translate(1175,1198)" d="m0 0 3 3 11 21 1 7-2-3-2 2-2 4-11-22v-2l-4-2 2-5 3-1z" fill="#D8D5DB"/>
<path transform="translate(980,1065)" d="m0 0h2l-1 5-13 28-8 16-6 11-8 7-3-1 3-6 3-2 2-4 4-4 6-11 2-6 2-4h2l2-7 4-8 2-6h2l2-7z" fill="#E1E0E4"/>
<path transform="translate(1316,1246)" d="m0 0h1l2 10 2 5v15l-1 8-3 17h-1l-1-8h-1v-40h2l-1-4z" fill="#E5E6E9"/>
<path transform="translate(927,1093)" d="m0 0 2 1-4 10-4 8-5 1-2 2h-5l-1 2 4-1v2h-3l-1 2-3-1-20 20-2-1 24-24 9-11z" fill="#DEDCE1"/>
<path transform="translate(764,1289)" d="m0 0 5 3 2 11-2 6 5-1v2h-2v2l-5 2-4 2 1-5-2-2-7-1v-9l4 2 1 5-1-7 2-4h2v-5z" fill="#E4E5E8"/>
<path transform="translate(737,1477)" d="m0 0 5 2 15 10 29 15 16 8 21 8 29 9 12 3v1l-9-1-25-7-27-10-29-14-20-11-12-8z" fill="#B4ADB6"/>
<path transform="translate(940,1190)" d="m0 0v3l-8 11-2 4h-2l-2 5-7 9-2 3h-2l-1 4-4 8-3 3-2 5-2-2 6-14 10-15 10-13 4-5z" fill="#C1BAC4"/>
<path transform="translate(858,1082)" d="m0 0h5l-5 5-3 1-1 5-7 7-8 7-5 5-5 3h-3l6-7 7-9h2l2-4 5-6 3-2 1-3z" fill="#E4E5E8"/>
<path transform="translate(809,1129)" d="m0 0 2 2-3 1v2l-6 5-1 2h-2l-2 5-2 3h-2l-2 4h-2v2l-5 1-1 7-5 3-1-5 4-6 2-5 6-8 2 4 2 1 2-7 4-4 9-6z" fill="#E4E5E8"/>
<path transform="translate(928,1058)" d="m0 0 5 2-2 3-2 5h-5l-5 8-5 5h-2l-2 4h-2l-1 5-1 3h-2l-1 2-2 2h-3l2-6h2l1-5h4l-2-1 2-4 8-8 2-3h2l2-4 3-4h2z" fill="#E4E5E8"/>
<path transform="translate(1084,1427)" d="m0 0 1 2-9 15-8 11-10 10-7 8-7 5-1 2h-2l-1 4 5-2-6 7h-5l1-4 7-9 7-6 5-5 8-9 4-4h2l3-6h2l1-5h2v-3h2v-3h2l2-6z" fill="#CAC6CD"/>
<path transform="translate(858,1275)" d="m0 0 2 1-1 9-3 24v24l2 18 6 25 1 5-3-1-4-16-4-22-1-12v-21l3-23z" fill="#E2E1E6"/>
<path transform="translate(872,1402)" d="m0 0 2 3 5 11 5 8 3 7-1 3-8-15 2 7h-2l-1-2-2 1-2-6h-2l-1-4-5-1v-5l-2-1 1-2 7 1z" fill="#E4E5E8"/>
<path transform="translate(1191,1232)" d="m0 0 2 3 4 17 2 13 1 22-2 20-4 20-4 13-1-4 5-20 2-12 1-23-2-25-4-20z" fill="#B4ADB6"/>
<path transform="translate(1116,1537)" d="m0 0h5v2l-40 5-12 3-11 6-8 8-6 11-5-1-7-4 3-1 5 2 3-1 9-13 4-1v-2l14-7 18-4 23-2z" fill="#B4ADB6"/>
<path transform="translate(904,1354)" d="m0 0h2l2 13 3 18 7 30-1 3-4-4 1-5h-4l-1-4 1-9-5-26z" fill="#E2E2E6"/>
<path transform="translate(1150,1464)" d="m0 0m-2 1h2l-2 4-16 10-11 8-17 10-17 8-3 4-9 2-1-2 28-14 17-10 13-9 15-10z" fill="#B4ADB6"/>
<path transform="translate(960,965)" d="m0 0h1l1 7v10l-2 12-2 7h-2l1-22 1-4h-4l-2 4-8 11-5 5 2-5 8-10 8-13z" fill="#C9C2CC"/>
<path transform="translate(906,1375)" d="m0 0h1l4 21-1 13h4v5l2 6-3-3-8-16-5-14h2v-2l3 1v-7z" fill="#B6AFB8"/>
<path transform="translate(686,1224)" d="m0 0h1l-1 10-1 7v54l1 19h-1l-3-20-1-12v-24l3-25z" fill="#BBB4BE"/>
<path transform="translate(798,1260)" d="m0 0h1v44l3 21v5l-2-4-5-3-1-6 1-6 1-31z" fill="#C1BBC3"/>
<path transform="translate(857,1142)" d="m0 0 4 1-1 8-10 11-7 1-1-4 7-9 4-4h2z" fill="#DFDEE2"/>
<path transform="translate(1042,1070)" d="m0 0 12 12 4 5 7 6 2 4 8 7 2 4 4 2 8 7v2l4 2v2h2l-1 2-7-5-5-6-8-7-5-4-7-8-12-12-9-11z" fill="#CDC6D0"/>
<path transform="translate(715,1347)" d="m0 0h2l7 16 10 17 12 17 5 6-1 2h-2l-2-5h-2l-9-13-7-11-5-7-3-8-5-11z" fill="#C9C2CB"/>
<path transform="translate(751,1403)" d="m0 0 4 4 14 16 12 12 4 2 5 6v2l-4-2-7-6-3-1-7-8-1-3-4-1-6-8-3-3-2-5-4-2 1-2z" fill="#CCC5CF"/>
<path transform="translate(907,1541)" d="m0 0 24 1 12 6 10 9 2 5 3 1 2 4h8l-4 3-6 1-5-10-7-7-14-8-25-4z" fill="#C4BEC6"/>
<path transform="translate(1101,1474)" d="m0 0 2 1-5 7-10 5-11 7-7 3-6 2-10 1 1-2 10-3 21-11 10-7z" fill="#DCD9DF"/>
<path transform="translate(996,1654)" d="m0 0h1l3 14 6 16v9l-3 9-4 4-2-1 4-9 1-10-4-13-2-5z" fill="#755A6C"/>
<path transform="translate(1240,1449)" d="m0 0 2 1-9 7-10 7-16 12-12 8-11 6-8 4h-2v-2l8-4 6-4 10-6 6-3 12-9 11-8 10-7z" fill="#CEC7D1"/>
<path transform="translate(1192,1240)" d="m0 0 2 4 3 21 1 18-1 21h-1l-1-14-1-2v-10l-1-9z" fill="#D7D2DA"/>
<path transform="translate(942,1132)" d="m0 0h3l-2 5-7 9-8 10-4 6-5 5-3 5-3 3-3-1 6-8 9-11 9-12z" fill="#E3E2E6"/>
<path transform="translate(943,1128)" d="m0 0 2 1-11 15-12 16-11 13-6 8-1-2 10-13 7-11 3-1 2-5 2-4 2-1v-2l5-5z" fill="#CBC4CE"/>
<path transform="translate(863,1423)" d="m0 0 5 4 10 13 7 8 8 8 7 4v2l4 2 12 11 9 7 1 2-4-2-11-8-13-12-9-7-13-13-8-11-5-6z" fill="#B4ADB6"/>
<path transform="translate(1078,1503)" d="m0 0 5 1-5 4-2 2 17-4 6-1-3 2-5 2v2l-8 2-18 1v-3z" fill="#DBD8DE"/>
<path transform="translate(953,895)" d="m0 0h2l-1 5-12 17-5 6v-3l1-2-6 4h-3l7-7 7-8 8-10z" fill="#B4ADB6"/>
<path transform="translate(1112,1471)" d="m0 0h5l-3 9-7 6-5 5-9 7-5 1 4-4 5-2v-2l10-8-1-4-4 1-2-2z" fill="#E5E6E9"/>
<path transform="translate(1114,1400)" d="m0 0h1v6l-10 16h-2l-2 5-7 11-5 6-5 4-7 8h-3l7-7 11-14 11-15 10-18z" fill="#C2BCC4"/>
<path transform="translate(874,1149)" d="m0 0 1 3-8 10-6 7-3 7-8 10h-2l-1 4-5 4-1 2-2-1 9-13 11-14 11-13z" fill="#D3CFD6"/>
<path transform="translate(851,1520)" d="m0 0 6 1 2-1 7 1 8 2-3 2-5 1h-4l1 3 2 2h-6l-2-2-9-3 1-4h2z" fill="#E4E5E8"/>
<path transform="translate(1016,1128)" d="m0 0 5 2 11 11 7 8v3l-7-2-1-4-4-2-5-6v-2l-4-2-2-3z" fill="#C9C2CC"/>
<path transform="translate(914,1497)" d="m0 0 7 3 16 8 5 2-1 3h-11l-12-3v-1h11v-2l-5-2-12-6z" fill="#DBD8DE"/>
<path transform="translate(1286,1395)" d="m0 0 1 3-9 14h-2l-2 4-9 11-3 4h-2l-2 4-12 12h-2v2h-2l2-4 7-6 1-2h2l2-4h2l2-5 3-2 2-4h2l2-4 8-9z" fill="#CEC7D1"/>
<path transform="translate(691,1241)" d="m0 0 3 2 1 3v8l1 3v3h-2l-2-7-3 3-1 8-2 1v-17l4-6z" fill="#E5E6E9"/>
<path transform="translate(897,1195)" d="m0 0v3l-1 3v4l-7 10h-3l-1 2-4-3 3-5 6-8 3-3z" fill="#E2E2E6"/>
<path transform="translate(881,1215)" d="m0 0h7l-8 16-2-2-2 5-6 6 3-10 2-7h2l2-5z" fill="#E0E0E4"/>
<path transform="translate(1208,1435)" d="m0 0v3l-8 8-8 7-13 9-16 11-11 7-4 1 4-4 16-10 10-7 13-9z" fill="#CEC7D1"/>
<path transform="translate(1188,1340)" d="m0 0 1 4-9 21-12 22-7 10-2-1 12-19 7-13 3-9 1-2h2v-6l1-2h2z" fill="#B4ADB6"/>
<path transform="translate(1100,1536)" d="m0 0h6l-1 2-7 1-25 5-10 4-4 3-2-1 9-7 14-5 17-1z" fill="#DEDCE2"/>
<path transform="translate(746,1293)" d="m0 0 3 3 1 3 1 11 1 9-1 5h-2l-4-22v-7z" fill="#E5E6E9"/>
<path transform="translate(995,997)" d="m0 0 5 5-1 3-3-2v11l-4 18-2-3 3-23v-7z" fill="#CEC7D1"/>
<path transform="translate(785,1027)" d="m0 0 2 1-15 11-12 8-15 11-10 8-4 2 6-7 13-10 17-12 10-6z" fill="#B4ADB6"/>
<path transform="translate(1124,1526)" d="m0 0h10l2 1-1 3-15 5-1-4-7-1 3-2z" fill="#E5E6E9"/>
<path transform="translate(939,1421)" d="m0 0 2 2 7 16 10 17v4l-5-2-8-10 1-2 4 5 2 1-8-16-5-12z" fill="#E4E4E8"/>
<path transform="translate(883,1502)" d="m0 0h8l11 2-3 2-9-1-5 1 3 3 7 4 7 3-2 2-12-5-8-3 1-5z" fill="#E5E6E9"/>
<path transform="translate(1121,1442)" d="m0 0v3l-8 8h-2v2l-9 6-9 8-6 7-5 4-2-1 15-15 4-2 1-3 16-12z" fill="#CEC7D1"/>
<path transform="translate(987,1560)" d="m0 0h20l15 2 7 2-4 1-12-2h-24l-16 3-5 1 4-3z" fill="#B4ADB6"/>
<path transform="translate(915,1417)" d="m0 0 3 1 4 10 5 8v3h2v3l4 2 4 8 4 4-1 2-8-9-9-14-7-13z" fill="#C5BFC7"/>
<path transform="translate(1080,1066)" d="m0 0 7 6 9 9 7 8 10 10 7 8-1 2-14-14-7-8-15-16-3-3z" fill="#B4ADB6"/>
<path transform="translate(1099,1507)" d="m0 0h8l2 4-1 4-7 4-4 3-4-1 9-5-2-6h-9v-1z" fill="#E5E6E9"/>
<path transform="translate(1104,1319)" d="m0 0h1l1 12v23l-1 8h-1l-1-6v-29z" fill="#D8D4DB"/>
<path transform="translate(859,1205)" d="m0 0 1 2-3 5-6 8-1 2-3 1-2 2 1-5 3-1v-2h2v-2l-4 1-3-2 10-6z" fill="#E3E3E7"/>
<path transform="translate(940,998)" d="m0 0 2 3-1 5-6 9-4 2-1-3 2-2 2-8 4-4h2z" fill="#E4E5E8"/>
<path transform="translate(1113,1313)" d="m0 0h2v21l-2 9h-1v-9l-2-10 1-7z" fill="#CEC7D1"/>
<path transform="translate(1172,1278)" d="m0 0 4 2-2 2-3 13-5 8-2-1 4-14-1-3 3-3z" fill="#E5E6E9"/>
<path transform="translate(940,1190)" d="m0 0v3l-8 11-2 4h-2l-2 5-3 2-1-2 2-2-1-2 10-13z" fill="#C9C2CC"/>
<path transform="translate(1103,1362)" d="m0 0h1l1 7h2l-1 6h-2l1 5-2 4-4 11h-1l1-10z" fill="#CEC7D1"/>
<path transform="translate(927,1237)" d="m0 0h2l-2 6h-2l-3 12-3 8h-2l-2 8h-1l1-10 4-9 4-8z" fill="#D2CDD5"/>
<path transform="translate(1112,1489)" d="m0 0m-1 1m-2 1h2v2l-16 8-9 5-2 3-9 2-1-2 28-14z" fill="#B4ADB6"/>
<path transform="translate(1256,1219)" d="m0 0 2 1 4 20 1 6v10h-2l-1-8-1-1-2-22z" fill="#D8D4DB"/>
<path transform="translate(728,1069)" d="m0 0 2 1-16 17-8 10-4 1 3-5 12-13z" fill="#BEB7C0"/>
<path transform="translate(944,929)" d="m0 0h2l-1 3h-2l-2 5-10 10-7 8-8 7-6 5-2-1 12-11 8-7 7-8z" fill="#BEB7C0"/>
<path transform="translate(1129,1522)" d="m0 0 4 1-9 4-13 3-15-1v-1l30-5z" fill="#D9D5DC"/>
<path transform="translate(1056,1551)" d="m0 0h2l-2 4-7 8-5 9-5-1-7-4 3-1 5 2 3-1 9-13 4-1z" fill="#C2BCC5"/>
<path transform="translate(869,1128)" d="m0 0h4l2 1-1 5-5 4-4-1-4 2v-2h2l2-5z" fill="#E0E0E4"/>
<path transform="translate(877,1041)" d="m0 0 2 1-10 10-11 9-6 6-2-1 5-7 4-4 3-2 2-2 5-2z" fill="#C4BEC6"/>
<path transform="translate(914,1106)" d="m0 0v3l-5 6-1 2 4-1v2h-3l-1 2-3-1-20 20-2-1 24-24z" fill="#CBC6CE"/>
<path transform="translate(1121,1534)" d="m0 0m-7 0h6l2 3-20 3h-9v-1l8-2h4l1-2z" fill="#D9D6DD"/>
<path transform="translate(1239,1186)" d="m0 0 4 2 4 10 3 5 2 4v3h3v7l-2-2v-4h-2v-3h-2l-3-5-2-3v-3h-2l1-6h-2v-2h-2l-1 2z" fill="#E4E4E8"/>
<path transform="translate(955,1117)" d="m0 0h2l-2 6-6 7-3 2-3-1 3-6 3-2 2-4z" fill="#DFDEE3"/>
<path transform="translate(966,1098)" d="m0 0 1 2-8 16-5 2 2-5 5-9 1-5z" fill="#E2E1E6"/>
<path transform="translate(1105,1380)" d="m0 0 1 3-9 22-4 8-1-3 9-24 3-5z" fill="#B4ADB6"/>
<path transform="translate(799,1418)" d="m0 0 7 6 6 6 5 3 12 13h-3l-8-8-8-7-11-11z" fill="#B4ADB6"/>
<path transform="translate(715,1347)" d="m0 0h2l7 16 6 12h-3l-4-6-3-8-5-11z" fill="#CBC4CE"/>
<path transform="translate(1168,1219)" d="m0 0h3v4h2v2h2l2 6v3l-4-2v-2l-3 1-2-1 1-4-2-6z" fill="#DEDBE1"/>
<path transform="translate(1289,1148)" d="m0 0 3 4 11 22-1 3v-2l-3-1-8-16z" fill="#BEB7C1"/>
<path transform="translate(991,1558)" d="m0 0h10v1l-14 2-15 4-4 2-8 1-1-2 9-2 13-5z" fill="#DFDEE3"/>
<path transform="translate(942,1132)" d="m0 0h3l-2 5-7 9-5 6h-2l1-4 10-13z" fill="#E2E2E6"/>
<path transform="translate(877,1455)" d="m0 0 5 2 18 13 10 7-4 1-3-2v-2l-5-2-5-4-11-8z" fill="#B9B2BB"/>
<path transform="translate(806,1046)" d="m0 0 2 1-3 3h-2l-2 4-19 19-2-1 12-12 3-5z" fill="#CAC4CD"/>
<path transform="translate(946,1553)" d="m0 0 4 1 5 6v2l3 1 2 4h8l-4 3-6 1-5-10-7-7z" fill="#C6C0C8"/>
<path transform="translate(824,1313)" d="m0 0h2l2 9 5 20-2-1-4-10-3-10z" fill="#E5E6E9"/>
<path transform="translate(891,1111)" d="m0 0 1 4-4 4-5 2-4 2 1-5 4-2 2-4z" fill="#DEDEE2"/>
<path transform="translate(1101,1474)" d="m0 0 2 1-5 7-10 5-4-1 4-4 12-7z" fill="#DAD7DE"/>
<path transform="translate(1079,1394)" d="m0 0 2 3-4 17-2 6h-2l-1 6-3 6h-2l1-5 7-15 3-10z" fill="#DEDDE2"/>
<path transform="translate(701,1098)" d="m0 0v3l-6 6-2 5-7 10-2 3h-2l2-5 4-5 2-5z" fill="#C3BCC5"/>
<path transform="translate(887,1524)" d="m0 0h9l12 2h6 3l1 2h-18l-14-2z" fill="#D7D3DB"/>
<path transform="translate(690,1253)" d="m0 0h2l2 7-2 6-4 1-1-3 2-10z" fill="#DEDBE1"/>
<path transform="translate(1047,1189)" d="m0 0h2l9 12 10 12-1 4-10-13-7-9-3-4z" fill="#D8D5DC"/>
<path transform="translate(1e3 1040)" d="m0 0 4 1 2 5 1 1 4 1v2l-2 2 4 9-2 1-8-15-3-4z" fill="#E0DFE4"/>
<path transform="translate(956 1e3)" d="m0 0 1 3-4 20-4 2 2-10 4-14z" fill="#CEC7D1"/>
<path transform="translate(1112,1287)" d="m0 0 3 4v16l-1-3h-2l-1 3v-13l-1-5h2z" fill="#CEC7D1"/>
<path transform="translate(913,1522)" d="m0 0 12 5 2 3-5 1-17-2v-1l12-1-5-4z" fill="#E0DFE4"/>
<path transform="translate(707,1319)" d="m0 0h2l4 16 3 9-1 3-2-3-4-12z" fill="#C8C1CB"/>
<path transform="translate(912,943)" d="m0 0m-1 1m-1 1m-1 1m-2 1h2v6l-8 6-3-2 5-6h2z" fill="#DDDCE0"/>
<path transform="translate(795,1276)" d="m0 0h1v17l-1 8h-1l-2-9-2-7 2-2 2 1z" fill="#DEDBE1"/>
<path transform="translate(893,1204)" d="m0 0 1 4-5 7h-3l-1 2-4-3 5-5h3z" fill="#E6E5E8"/>
<path transform="translate(1304,1202)" d="m0 0 3 2v2h2v3h2l1 5 2 1-1 3h-2l-2-5-4-1 1-6h-3z" fill="#E5E6E9"/>
<path transform="translate(1024,1048)" d="m0 0 4 2 13 17 1 4h-2l-3-4v-2h-2l-6-9-5-7z" fill="#C9C2CB"/>
<path transform="translate(1029,808)" d="m0 0 3 4 3-2 3 12 1 6h-2l-8-17z" fill="#B2ADB3"/>
<path transform="translate(1053,1473)" d="m0 0 2 1-1 2h-2l-1 4-9 4-3 1 2-5h2l2-4h3l4-2z" fill="#CCC7CF"/>
<path transform="translate(1082,1525)" d="m0 0 3 1-1 2 2 1h21v1l-8 1h-21l1-4z" fill="#E4E4E8"/>
<path transform="translate(774,1470)" d="m0 0 8 3 5 5 7 6 6 4-2 1-9-6-10-8-5-3z" fill="#CBC4CE"/>
<path transform="translate(914,1225)" d="m0 0 1 3-2 2-3 7-3 3-2 5-2-2 6-14 3-3z" fill="#C9C2CC"/>
<path transform="translate(965,1482)" d="m0 0 4 2 4 3v2h2l-1 4-7-3-4-4 4 1z" fill="#E1E1E5"/>
<path transform="translate(1042,1476)" d="m0 0h2l-1 4h-2l-1 4 5-2-6 7h-5l1-4z" fill="#E1E1E5"/>
<path transform="translate(1060,1432)" d="m0 0 1 3-3 9 1 2-7 8h-2l2-6 3-4z" fill="#B4AEB5"/>
<path transform="translate(1124,1376)" d="m0 0h1v7l-6 15-4 2 2-6 5-11z" fill="#C8C3CB"/>
<path transform="translate(836,1338)" d="m0 0 4 8v6h-5l-2-6 1-4z" fill="#E3E4E7"/>
<path transform="translate(1095,1505)" d="m0 0 4 1-6 3h-2v2l-5 1h-7l-3-2 17-4z" fill="#D7D3DB"/>
<path transform="translate(936,1464)" d="m0 0 6 2 14 12-1 3-10-9-9-7z" fill="#CDC9D0"/>
<path transform="translate(1114,1400)" d="m0 0h1v6l-10 16-1-4 9-16z" fill="#CAC5CD"/>
<path transform="translate(1111,1348)" d="m0 0h1l-1 12-3 5h-1l1-16z" fill="#CEC7D1"/>
<path transform="translate(889,1477)" d="m0 0h4l10 3v1h-6v4l-5-2-5-4h2z" fill="#E5E6E9"/>
<path transform="translate(943,909)" d="m0 0 2 1-5 9-4 4 2-5-6 4h-3l7-7z" fill="#C6BFC8"/>
<path transform="translate(1158,355)" d="m0 0v3l-10 11-5 5-6 5 2-4 8-8 7-8z" fill="#077C44"/>
<path transform="translate(913,1480)" d="m0 0 5 2 12 8-2 2v-2l-6-1-8-4z" fill="#CCC8CF"/>
<path transform="translate(954,1472)" d="m0 0h2l6 8 5 5v3l-6-4-5-3 1-2 2 1-5-7z" fill="#B5AEB7"/>
<path transform="translate(943,1434)" d="m0 0 3 4 6 12v2l-3-1-6-8v-2h2l-2-4z" fill="#B3ADB4"/>
<path transform="translate(916,1103)" d="m0 0 3 3-1 4-4 5h-4l1-4 3-3z" fill="#DCD8DF"/>
<path transform="translate(934,1083)" d="m0 0 2 1-4 8h-2l-1 2-4 2-4 3 2-4 9-11z" fill="#C7C0CA"/>
<path transform="translate(910,999)" d="m0 0 2 2-1 2h-2l-2 4 1 2-5 2h-2v2l-2-1 1-3h2v-2h2l1-4z" fill="#E4E4E8"/>
<path transform="translate(1e3 1010)" d="m0 0 3 1 8 16h-3l-4-7-4-8z" fill="#CDC6D0"/>
<path transform="translate(874,1149)" d="m0 0 1 3-8 10-9 10v-3l12-14z" fill="#CBC5CE"/>
<path transform="translate(971,1085)" d="m0 0h2l-3 9-2 4-5 1 2-5h2l2-7z" fill="#DFDEE3"/>
<path transform="translate(916,940)" d="m0 0h2l1 3-9 9h-1v-5z" fill="#D3D0D6"/>
<path transform="translate(704,1294)" d="m0 0h1l3 17-1 8h-1l-3-23z" fill="#C9C2CC"/>
<path transform="translate(1246,1161)" d="m0 0 5 4 6 12v6l-2-3-9-17z" fill="#BFB8C2"/>
<path transform="translate(827,1265)" d="m0 0h2v13l-4 5v-12z" fill="#E5E6E9"/>
<path transform="translate(1056,1495)" d="m0 0h2l-1 3v1h5l-4 2-10 2 2-4z" fill="#DFDDE3"/>
<path transform="translate(1299,1370)" d="m0 0 1 2-9 19-4 4 2-6 8-16z" fill="#CEC7D1"/>
<path transform="translate(1188,1340)" d="m0 0 1 4-5 12h-2l-2 6-1-3 3-6h2v-6l1-2h2z" fill="#C0B9C2"/>
<path transform="translate(903,1190)" d="m0 0 2 1-2 4-5 7-3-1 3-7z" fill="#ECEAED"/>
<path transform="translate(1089,1156)" d="m0 0 3 2v2h2l8 11-3 1-5-6v-2h-2l-3-6z" fill="#E0DFE4"/>
<path transform="translate(930,1487)" d="m0 0 4 2 9 7-3 1-10-5 2-1z" fill="#B4ADB6"/>
<path transform="translate(984,1054)" d="m0 0h2l-1 6-2 5-4 1 1-7z" fill="#DBD9DF"/>
<path transform="translate(922,1479)" d="m0 0 4 2 12 8-1 3-5-4-5-2z" fill="#D3CFD6"/>
<path transform="translate(1070,1448)" d="m0 0 1 3-7 8-4 3 1-5 5-5h2z" fill="#CDC8D0"/>
<path transform="translate(1092,1406)" d="m0 0 1 4-3 10-4 7-1-2 3-9z" fill="#CAC6CD"/>
<path transform="translate(1166,1208)" d="m0 0 7 7-1 3-7-1v-4z" fill="#DEDBE1"/>
<path transform="translate(914,1497)" d="m0 0 7 3 7 4 1 3-5-2-12-6z" fill="#D7D2DA"/>
<path transform="translate(876,1613)" d="m0 0 1 4-5 9-2 1 2-9 2-4z" fill="#715369"/>
<path transform="translate(748,1483)" d="m0 0 5 1 7 5 7 4 1 2-5-2-14-8z" fill="#CEC7D1"/>
<path transform="translate(788,1141)" d="m0 0 1 3-6 7-2 5-6 4 2-4 9-12z" fill="#C7C1CA"/>
<path transform="translate(1188,1433)" d="m0 0 2 1-15 14-3 1v-2l8-7z" fill="#CEC7D1"/>
<path transform="translate(1097,1393)" d="m0 0 1 4-4 11-2-2 1-6 3-6z" fill="#DBD8DE"/>
<path transform="translate(828,1294)" d="m0 0h2l2 13v7l-2-1-2-13z" fill="#E5E6E9"/>
<path transform="translate(862,1259)" d="m0 0h2l-1 7-2 10-3-1 1-6 3-9z" fill="#DDDAE0"/>
<path transform="translate(902,1182)" d="m0 0 2 1-11 15-1-2 4-7z" fill="#C8C1CB"/>
<path transform="translate(1065,1049)" d="m0 0 4 2 5 6v2h2l4 5-1 2-8-8-6-7z" fill="#B4ADB6"/>
<path transform="translate(1056,1551)" d="m0 0h2l-2 4-7 8-2 2 1-6 4-5 4-1z" fill="#CCC8CF"/>
<path transform="translate(1157,1195)" d="m0 0h3l2 5-3 3-2-1v-2h-2l1-4z" fill="#DEDBE1"/>
<path transform="translate(883,1060)" d="m0 0 3 1-3 1v2h-2l-2 4-3 2-1-5 5-3z" fill="#E5E6E9"/>
<path transform="translate(860,1531)" d="m0 0h10l11 3v1h-8l-13-3z" fill="#DAD7DE"/>
<path transform="translate(1083,1504)" d="m0 0h2l1 3-2 2-9 2-1-2z" fill="#B1A9B2"/>
<path transform="translate(813,1431)" d="m0 0 4 2 12 13h-3l-8-8z" fill="#BFB8C1"/>
<path transform="translate(877,1415)" d="m0 0 4 3 6 13-1 3-9-17z" fill="#E5E6E9"/>
<path transform="translate(779,1073)" d="m0 0v3l-8 8-3 4-2-1 7-8z" fill="#CEC7D1"/>
<path transform="translate(1081,1474)" d="m0 0 2 1-2 4-5 5-3-2 6-5z" fill="#E0DEE3"/>
<path transform="translate(877,1455)" d="m0 0 5 2 12 9 1 2-5-2-8-6z" fill="#B4ADB6"/>
<path transform="translate(853,1369)" d="m0 0 6 4 2 1 1 7-5-4-4-6z" fill="#CEC7D1"/>
<path transform="translate(796,1295)" d="m0 0h1l1 19h-2l-1-9z" fill="#DAD6DD"/>
<path transform="translate(961,1101)" d="m0 0 1 3-8 14-2 1 2-6 4-8z" fill="#CAC3CD"/>
<path transform="translate(990,1040)" d="m0 0 1 4-4 11-3-2 2-6v-2h3z" fill="#E1E0E5"/>
<path transform="translate(1069,1493)" d="m0 0 2 1-3 3-4 2-10 1 1-2 10-3z" fill="#D5D0D8"/>
<path transform="translate(905,1492)" d="m0 0 6 2 3 2v2l-6-1-5-3z" fill="#D9D6DD"/>
<path transform="translate(755,1299)" d="m0 0 4 2 1 5 1 2-4 1-2-2z" fill="#E5E6E9"/>
<path transform="translate(711,1088)" d="m0 0v3l-6 7-3-1 6-7z" fill="#C2BBC5"/>
<path transform="translate(922,1024)" d="m0 0 2 1-9 11-2-2 7-9z" fill="#E3E4E7"/>
<path transform="translate(896,1014)" d="m0 0 2 1 2 3h-3v2l-5 2-1-2 1-3h2l1-2z" fill="#E3E4E7"/>
<path transform="translate(707,1319)" d="m0 0h2l3 12-1 2-2-1z" fill="#CAC3CD"/>
<path transform="translate(1313,1218)" d="m0 0 2 4 2 9-1 4-2-3z" fill="#E4E5E8"/>
<path transform="translate(946,1180)" d="m0 0h2l-2 5-1 3-5 1 2-4z" fill="#C6BFC9"/>
<path transform="translate(1152,1144)" d="m0 0 6 4 1 3 3 3 2 5-5-5-7-8z" fill="#BAB3BC"/>
<path transform="translate(990,1032)" d="m0 0h3l-2 8-2 5-2-2z" fill="#D9D6DC"/>
<path transform="translate(1046,1475)" d="m0 0 2 1-1 4-4 1-1 3-3 1 2-5h2l2-4z" fill="#BAB3BC"/>
<path transform="translate(1072,1419)" d="m0 0 2 1-4 10-1 2h-2l1-5z" fill="#D6D3D9"/>
<path transform="translate(927,1237)" d="m0 0h2l-2 6h-2l-2 7-2-1 2-5z" fill="#D0CAD3"/>
<path transform="translate(853,1214)" d="m0 0v3l-2 5-4 1-2 2 1-5 3-1v-2h2v-2z" fill="#E5E6E9"/>
<path transform="translate(1154,1191)" d="m0 0 5 1v2l-5 2-1 4-3-3 1-3h3z" fill="#DEDBE1"/>
<path transform="translate(967,1150)" d="m0 0h3l-2 5-3 3-2 3-1-4z" fill="#CCC8CF"/>
<path transform="translate(893,1149)" d="m0 0 3 1-4 7-3-3 1-4z" fill="#DBD7DE"/>
<path transform="translate(1069,1542)" d="m0 0 1 3-10 5h-3l9-7z" fill="#DEDCE2"/>
<path transform="translate(877,1417)" d="m0 0 3 3 2 4-1 8-3-3v-2h2l-3-7z" fill="#E0DEE3"/>
<path transform="translate(1162,1376)" d="m0 0h2l-1 7-4 1v-5z" fill="#E5E6E9"/>
<path transform="translate(855,1207)" d="m0 0m-1 1m-1 1m-2 1h2v3h-2v2l-4 1-3-2z" fill="#E5E6E9"/>
<path transform="translate(845,1065)" d="m0 0 2 2v3l-3 2-4-1 2-3-2-2 5 1z" fill="#E2E2E6"/>
<path transform="translate(1e3 1040)" d="m0 0 4 1 2 5-1 4-5-7z" fill="#E4E4E8"/>
<path transform="translate(1129,1522)" d="m0 0 4 1-9 4h-5l1-3z" fill="#D5D0D8"/>
<path transform="translate(905,1518)" d="m0 0 7 4v2l2 1-5-1-5-2z" fill="#D9D5DC"/>
<path transform="translate(1086,1499)" d="m0 0 3 1-3 4h-5v-3z" fill="#DFDDE2"/>
<path transform="translate(963,1486)" d="m0 0 4 1h4l1 5-5-2z" fill="#DAD7DD"/>
<path transform="translate(1060,1469)" d="m0 0 3 1-8 7-3 1v-2h2l2-4z" fill="#DEDCE1"/>
<path transform="translate(890,1440)" d="m0 0 4 5 4 7-1 2-3-2-3-8z" fill="#E5E6E9"/>
<path transform="translate(916,1443)" d="m0 0 7 6 5 6-4-2-8-8z" fill="#C0BAC2"/>
<path transform="translate(724,1366)" d="m0 0h2l4 9h-3l-4-6z" fill="#CDC6CF"/>
<path transform="translate(1331,1324)" d="m0 0h1v8l-3 9h-1l1-10z" fill="#CEC7D1"/>
<path transform="translate(798,1243)" d="m0 0h3v7l-4-1v-3l-2-1z" fill="#E3E4E7"/>
<path transform="translate(928,1151)" d="m0 0 2 2-6 9-2-1 4-8z" fill="#E4E4E8"/>
<path transform="translate(927,1093)" d="m0 0 2 1-3 8-4-4z" fill="#DDDAE0"/>
<path transform="translate(890,955)" d="m0 0 2 1-3 1-2 5-5 1h-3z" fill="#BFB8C1"/>
<path transform="translate(836,1649)" d="m0 0" fill="#B4ADB6"/>
</svg>
